<svg width="48" height="48" viewBox="0 0 48 48" fill="none" xmlns="http://www.w3.org/2000/svg">
<path d="M19.1528 22.1008H11.0492C10.8538 22.1008 10.6664 22.0232 10.5283 21.8851C10.3901 21.7469 10.3125 21.5595 10.3125 21.3641C10.3125 21.1688 10.3901 20.9814 10.5283 20.8432C10.6664 20.7051 10.8538 20.6274 11.0492 20.6274H19.1528C19.3482 20.6274 19.5356 20.7051 19.6738 20.8432C19.8119 20.9814 19.8895 21.1688 19.8895 21.3641C19.8895 21.5595 19.8119 21.7469 19.6738 21.8851C19.5356 22.0232 19.3482 22.1008 19.1528 22.1008Z" fill="black"/>
<path d="M11.0492 16.944H30.2032C30.3986 16.944 30.586 17.0216 30.7242 17.1597C30.8623 17.2979 30.9399 17.4853 30.9399 17.6807C30.9399 17.876 30.8623 18.0634 30.7242 18.2016C30.586 18.3397 30.3986 18.4174 30.2032 18.4174H11.0492C10.8538 18.4174 10.6664 18.3397 10.5283 18.2016C10.3901 18.0634 10.3125 17.876 10.3125 17.6807C10.3125 17.4853 10.3901 17.2979 10.5283 17.1597C10.6664 17.0216 10.8538 16.944 11.0492 16.944Z" fill="black"/>
<path d="M11.0492 13.2605H30.2032C30.3986 13.2605 30.586 13.3381 30.7242 13.4763C30.8623 13.6144 30.9399 13.8018 30.9399 13.9972C30.9399 14.1926 30.8623 14.38 30.7242 14.5181C30.586 14.6563 30.3986 14.7339 30.2032 14.7339H11.0492C10.8538 14.7339 10.6664 14.6563 10.5283 14.5181C10.3901 14.38 10.3125 14.1926 10.3125 13.9972C10.3125 13.8018 10.3901 13.6144 10.5283 13.4763C10.6664 13.3381 10.8538 13.2605 11.0492 13.2605Z" fill="black"/>
<path d="M11.0492 9.57703H30.2032C30.3986 9.57703 30.586 9.65464 30.7242 9.7928C30.8623 9.93096 30.9399 10.1183 30.9399 10.3137C30.9399 10.5091 30.8623 10.6965 30.7242 10.8346C30.586 10.9728 30.3986 11.0504 30.2032 11.0504H11.0492C10.8538 11.0504 10.6664 10.9728 10.5283 10.8346C10.3901 10.6965 10.3125 10.5091 10.3125 10.3137C10.3125 10.1183 10.3901 9.93096 10.5283 9.7928C10.6664 9.65464 10.8538 9.57703 11.0492 9.57703Z" fill="black"/>
<path d="M41.1403 21.3715L40.6394 21.8798L40.1089 21.3494L40.5731 20.8853C41.1883 20.2721 41.549 19.449 41.5827 18.581C41.6164 17.713 41.3207 16.8644 40.7549 16.2054C40.189 15.5463 39.3949 15.1256 38.5318 15.0275C37.6688 14.9295 36.8005 15.1615 36.1013 15.6769V5.89355C36.0996 5.30794 35.8662 4.74681 35.4521 4.33272C35.038 3.91863 34.4768 3.68522 33.8912 3.68347H7.37024C6.78463 3.68522 6.2235 3.91863 5.80941 4.33272C5.39531 4.74681 5.16191 5.30794 5.16016 5.89355V41.2549C5.16191 41.8405 5.39531 42.4016 5.80941 42.8157C6.2235 43.2298 6.78463 43.4632 7.37024 43.465H33.8912C34.4768 43.4632 35.038 43.2298 35.4521 42.8157C35.8662 42.4016 36.0996 41.8405 36.1013 41.2549V28.5027L42.1864 22.4176C42.3251 22.2789 42.4031 22.0907 42.4031 21.8946C42.4031 21.6984 42.3251 21.5102 42.1864 21.3715C42.0477 21.2328 41.8595 21.1548 41.6634 21.1548C41.4672 21.1548 41.279 21.2328 41.1403 21.3715ZM34.6279 27.8912L33.766 28.7532C33.6407 28.8769 33.5643 29.0417 33.5507 29.2173C33.5372 29.3929 33.5874 29.5674 33.6922 29.7089C33.797 29.8505 33.9493 29.9494 34.1212 29.9877C34.2931 30.0259 34.473 30.0009 34.6279 29.9172V41.2549C34.6279 41.4503 34.5503 41.6376 34.4122 41.7758C34.274 41.914 34.0866 41.9916 33.8912 41.9916H7.37024C7.17486 41.9916 6.98747 41.914 6.84932 41.7758C6.71116 41.6376 6.63354 41.4503 6.63354 41.2549V5.89355C6.63354 5.69817 6.71116 5.51079 6.84932 5.37263C6.98747 5.23448 7.17486 5.15686 7.37024 5.15686H33.8912C34.0866 5.15686 34.274 5.23448 34.4122 5.37263C34.5503 5.51079 34.6279 5.69817 34.6279 5.89355V17.0913C31.5338 20.1854 20.837 30.8822 20.8296 30.897C20.6212 31.1054 20.4701 31.2123 20.4171 31.4937C20.3994 31.5674 19.4152 36.0509 19.4152 36.1275L18.6711 36.8716C18.5324 37.0103 18.4545 37.1984 18.4545 37.3946C18.4545 37.5908 18.5324 37.7789 18.6711 37.9177C18.8099 38.0564 18.998 38.1343 19.1942 38.1343C19.3904 38.1343 19.5785 38.0564 19.7172 37.9177L20.4687 37.1662C20.5829 37.1662 24.9868 36.1975 25.0951 36.1717C25.4303 36.0929 25.4568 36.0089 25.6992 35.7665L34.6279 26.8304V27.8912ZM21.4779 32.7534L23.8354 35.1109C21.3998 35.6508 22.7951 35.3444 20.8223 35.7665C21.2297 33.8607 21.0728 34.5812 21.4779 32.7534ZM25.2203 34.1679L22.4283 31.3758C22.6566 31.1356 33.0514 20.7446 33.2871 20.5096L36.0792 23.3016C35.6696 23.709 25.5666 33.8032 25.2203 34.1679ZM36.1013 26.4179V25.357C38.5766 22.8817 37.9291 23.5278 39.0702 22.3955L39.6006 22.9186L36.1013 26.4179ZM39.5269 19.8465C38.2922 21.0812 38.8315 20.5405 37.1253 22.2555H37.118L34.3406 19.4708C34.7686 19.0325 34.3524 19.4509 36.7422 17.0618C37.1128 16.6987 37.6117 16.4965 38.1305 16.4991C38.6493 16.5017 39.1461 16.709 39.513 17.0758C39.8798 17.4427 40.0871 17.9395 40.0897 18.4583C40.0923 18.9771 39.8901 19.476 39.5269 19.8465Z" fill="black"/>
</svg>
