<svg width="48" height="48" viewBox="0 0 48 48" fill="none" xmlns="http://www.w3.org/2000/svg">
<path fill-rule="evenodd" clip-rule="evenodd" d="M35.5375 44.3195H4.32128C4.07224 44.3195 3.87109 44.1183 3.87109 43.8693V3.20873C3.87109 2.95969 4.07224 2.75854 4.32128 2.75854H35.5375C35.7865 2.75854 35.9877 2.95969 35.9877 3.20873V16.1397C35.9877 16.3887 35.7865 16.5898 35.5375 16.5898C35.2884 16.5898 35.0873 16.3887 35.0873 16.1397V3.6685H4.78105V43.4191H35.0873V37.308C35.0873 37.059 35.2884 36.8579 35.5375 36.8579C35.7865 36.8579 35.9877 37.059 35.9877 37.308V43.8693C35.9972 44.1183 35.7961 44.3195 35.5375 44.3195Z" fill="black"/>
<path fill-rule="evenodd" clip-rule="evenodd" d="M7.80839 10.316H32.0706V6.69535H7.80839V10.316ZM32.5208 11.226H7.34862C7.09958 11.226 6.89844 11.0248 6.89844 10.7758V6.23559C6.89844 5.98655 7.09958 5.7854 7.34862 5.7854H32.5112C32.7603 5.7854 32.9614 5.98655 32.9614 6.23559V10.7758C32.971 11.0248 32.7699 11.226 32.5208 11.226Z" fill="black"/>
<path fill-rule="evenodd" clip-rule="evenodd" d="M21.9736 29.4154C21.6192 29.4154 21.3223 29.7028 21.3223 30.0668C21.3223 30.4212 21.6096 30.7181 21.9736 30.7181C22.328 30.7181 22.6249 30.4308 22.6249 30.0668C22.6249 29.7028 22.328 29.4154 21.9736 29.4154ZM21.9736 31.6089C21.1211 31.6089 20.4219 30.9097 20.4219 30.0572C20.4219 29.1951 21.1211 28.5055 21.9736 28.5055C22.8261 28.5055 23.5253 29.2047 23.5253 30.0572C23.5349 30.9193 22.8356 31.6089 21.9736 31.6089Z" fill="black"/>
<path fill-rule="evenodd" clip-rule="evenodd" d="M8.07616 40.3924H9.15852V37.969H8.07616V40.3924ZM9.60871 41.2928H7.62597C7.37693 41.2928 7.17578 41.0916 7.17578 40.8426V37.5093C7.17578 37.2602 7.37693 37.0591 7.62597 37.0591H9.60871C9.85775 37.0591 10.0589 37.2602 10.0589 37.5093V40.8426C10.0589 41.0916 9.85775 41.2928 9.60871 41.2928Z" fill="black"/>
<path fill-rule="evenodd" clip-rule="evenodd" d="M12.5293 40.3924H13.6116V36.2832H12.5293V40.3924ZM14.0618 41.2928H12.0791C11.8301 41.2928 11.6289 41.0916 11.6289 40.8426V35.8235C11.6289 35.5744 11.8301 35.3733 12.0791 35.3733H14.0618C14.3109 35.3733 14.512 35.5744 14.512 35.8235V40.8426C14.512 41.0916 14.3109 41.2928 14.0618 41.2928Z" fill="black"/>
<path fill-rule="evenodd" clip-rule="evenodd" d="M16.9824 40.3924H18.0648V37.969H16.9824V40.3924ZM18.515 41.2928H16.5322C16.2832 41.2928 16.082 41.0916 16.082 40.8426V37.5093C16.082 37.2602 16.2832 37.0591 16.5322 37.0591H18.515C18.764 37.0591 18.9651 37.2602 18.9651 37.5093V40.8426C18.9651 41.0916 18.764 41.2928 18.515 41.2928Z" fill="black"/>
<path fill-rule="evenodd" clip-rule="evenodd" d="M21.4355 40.3924H22.5179V33.7354H21.4355V40.3924ZM22.9681 41.2928H20.9853C20.7363 41.2928 20.5352 41.0916 20.5352 40.8426V33.2756C20.5352 33.0266 20.7363 32.8254 20.9853 32.8254H22.9681C23.2171 32.8254 23.4183 33.0266 23.4183 33.2756V40.8426C23.4183 41.0916 23.2171 41.2928 22.9681 41.2928Z" fill="black"/>
<path fill-rule="evenodd" clip-rule="evenodd" d="M18.325 33.9844C18.2004 33.9844 18.0855 33.9365 17.9993 33.8407C17.8269 33.6587 17.8365 33.3713 18.0184 33.1989L20.8728 30.4786C21.0548 30.3062 21.3422 30.3158 21.5146 30.4978C21.687 30.6798 21.6774 30.9671 21.4954 31.1396L18.641 33.8598C18.5453 33.946 18.4303 33.9844 18.325 33.9844ZM16.4955 34.3579C16.438 34.3579 16.3901 34.3483 16.3326 34.3292L13.938 33.4192C13.7081 33.333 13.5836 33.0648 13.6794 32.8349C13.7656 32.6051 14.0338 32.4805 14.2637 32.5667L16.6583 33.4767C16.8882 33.5629 17.0127 33.8311 16.9169 34.061C16.8499 34.243 16.6775 34.3579 16.4955 34.3579ZM9.48404 34.3675C9.30205 34.3675 9.12963 34.2526 9.06258 34.0706C8.97638 33.8311 9.1009 33.5725 9.33078 33.4863L11.8787 32.5572C12.1181 32.471 12.3767 32.5955 12.4629 32.8254C12.5491 33.0648 12.4246 33.3234 12.1947 33.4097L9.64687 34.3388C9.5894 34.3579 9.53193 34.3675 9.48404 34.3675Z" fill="black"/>
<path fill-rule="evenodd" clip-rule="evenodd" d="M17.5166 33.6491C17.1622 33.6491 16.8652 33.9364 16.8652 34.3004C16.8652 34.6548 17.1526 34.9518 17.5166 34.9518C17.871 34.9518 18.1679 34.6644 18.1679 34.3004C18.1679 33.9364 17.8805 33.6491 17.5166 33.6491ZM17.5166 35.8426C16.6641 35.8426 15.9648 35.1433 15.9648 34.2908C15.9648 33.4288 16.6641 32.7391 17.5166 32.7391C18.369 32.7391 19.0683 33.4384 19.0683 34.2908C19.0778 35.1529 18.3786 35.8426 17.5166 35.8426Z" fill="black"/>
<path fill-rule="evenodd" clip-rule="evenodd" d="M13.0673 31.9537C12.7129 31.9537 12.416 32.2411 12.416 32.6051C12.416 32.9595 12.7034 33.2564 13.0673 33.2564C13.4217 33.2564 13.7187 32.969 13.7187 32.6051C13.7187 32.2507 13.4313 31.9537 13.0673 31.9537ZM13.0673 34.1568C12.2149 34.1568 11.5156 33.4575 11.5156 32.6051C11.5156 31.7526 12.2149 31.0533 13.0673 31.0533C13.9198 31.0533 14.619 31.7526 14.619 32.6051C14.619 33.4575 13.9294 34.1568 13.0673 34.1568Z" fill="black"/>
<path fill-rule="evenodd" clip-rule="evenodd" d="M8.45015 33.6491C8.09574 33.6491 7.79881 33.9364 7.79881 34.3004C7.79881 34.6548 8.08617 34.9518 8.45015 34.9518C8.80455 34.9518 9.10148 34.6644 9.10148 34.3004C9.10148 33.9364 8.80455 33.6491 8.45015 33.6491ZM8.45015 35.8426C7.59766 35.8426 6.89844 35.1529 6.89844 34.2908C6.89844 33.4288 7.59766 32.7391 8.45015 32.7391C9.30263 32.7391 10.0019 33.4384 10.0019 34.2908C10.0019 35.1529 9.31221 35.8426 8.45015 35.8426Z" fill="black"/>
<path fill-rule="evenodd" clip-rule="evenodd" d="M32.5205 36.4173H25.4228C25.1738 36.4173 24.9727 36.2162 24.9727 35.9672C24.9727 35.7181 25.1738 35.517 25.4228 35.517H32.5205C32.7695 35.517 32.9707 35.7181 32.9707 35.9672C32.9707 36.2162 32.7695 36.4173 32.5205 36.4173Z" fill="black"/>
<path fill-rule="evenodd" clip-rule="evenodd" d="M32.5205 38.8599H25.4228C25.1738 38.8599 24.9727 38.6587 24.9727 38.4097C24.9727 38.1606 25.1738 37.9595 25.4228 37.9595H32.5205C32.7695 37.9595 32.9707 38.1606 32.9707 38.4097C32.9707 38.6491 32.7695 38.8599 32.5205 38.8599Z" fill="black"/>
<path fill-rule="evenodd" clip-rule="evenodd" d="M32.5205 41.2927H25.4228C25.1738 41.2927 24.9727 41.0916 24.9727 40.8425C24.9727 40.5935 25.1738 40.3923 25.4228 40.3923H32.5205C32.7695 40.3923 32.9707 40.5935 32.9707 40.8425C32.9707 41.0916 32.7695 41.2927 32.5205 41.2927Z" fill="black"/>
<path fill-rule="evenodd" clip-rule="evenodd" d="M19.3887 15.0574H7.34862C7.09958 15.0574 6.89844 14.8562 6.89844 14.6072C6.89844 14.3581 7.09958 14.157 7.34862 14.157H19.3887C19.6378 14.157 19.8389 14.3581 19.8389 14.6072C19.8389 14.8562 19.6378 15.0574 19.3887 15.0574Z" fill="black"/>
<path fill-rule="evenodd" clip-rule="evenodd" d="M16.5344 17.9499H7.34862C7.09958 17.9499 6.89844 17.7488 6.89844 17.4997C6.89844 17.2507 7.09958 17.0496 7.34862 17.0496H16.5344C16.7834 17.0496 16.9846 17.2507 16.9846 17.4997C16.9846 17.7488 16.7834 17.9499 16.5344 17.9499Z" fill="black"/>
<path fill-rule="evenodd" clip-rule="evenodd" d="M19.3887 20.8428H7.34862C7.09958 20.8428 6.89844 20.6416 6.89844 20.3926C6.89844 20.1435 7.09958 19.9424 7.34862 19.9424H19.3887C19.6378 19.9424 19.8389 20.1435 19.8389 20.3926C19.8389 20.6416 19.6378 20.8428 19.3887 20.8428Z" fill="black"/>
<path fill-rule="evenodd" clip-rule="evenodd" d="M19.3887 24.6741H7.34862C7.09958 24.6741 6.89844 24.4729 6.89844 24.2239C6.89844 23.9748 7.09958 23.7737 7.34862 23.7737H19.3887C19.6378 23.7737 19.8389 23.9748 19.8389 24.2239C19.8389 24.4633 19.6378 24.6741 19.3887 24.6741Z" fill="black"/>
<path fill-rule="evenodd" clip-rule="evenodd" d="M19.3887 27.5669H7.34862C7.09958 27.5669 6.89844 27.3657 6.89844 27.1167C6.89844 26.8677 7.09958 26.6665 7.34862 26.6665H19.3887C19.6378 26.6665 19.8389 26.8677 19.8389 27.1167C19.8389 27.3562 19.6378 27.5669 19.3887 27.5669Z" fill="black"/>
<path fill-rule="evenodd" clip-rule="evenodd" d="M28.0947 19.3292C26.9357 19.54 26.0545 20.5649 26.0545 21.7813C26.0545 23.1606 27.1752 24.2813 28.5545 24.2813C29.7805 24.2813 30.7958 23.4001 31.0065 22.2411H28.5545C28.3054 22.2411 28.1043 22.04 28.1043 21.7909V19.3292H28.0947ZM28.5545 25.1913C26.6771 25.1913 25.1445 23.6683 25.1445 21.7813C25.1445 19.904 26.6675 18.381 28.5545 18.381C28.8035 18.381 29.0046 18.5821 29.0046 18.8312V21.3311H31.5046C31.7537 21.3311 31.9548 21.5323 31.9548 21.7813C31.9548 23.6587 30.4318 25.1913 28.5545 25.1913Z" fill="black"/>
<path fill-rule="evenodd" clip-rule="evenodd" d="M30.5076 19.8274H32.5095C32.3179 18.8121 31.5229 18.0075 30.5076 17.8255V19.8274ZM32.998 20.7374H30.0478C29.7988 20.7374 29.5977 20.5362 29.5977 20.2872V17.337C29.5977 17.088 29.7988 16.8868 30.0478 16.8868C31.9252 16.8868 33.4578 18.4098 33.4578 20.2872C33.4578 20.5362 33.247 20.7374 32.998 20.7374Z" fill="black"/>
<path fill-rule="evenodd" clip-rule="evenodd" d="M29.291 13.5631C28.0266 13.5631 26.7431 13.8887 25.5649 14.5592C23.8312 15.5554 22.5956 17.1646 22.0784 19.0994C21.5611 21.0247 21.8293 23.0457 22.8255 24.7699C23.8217 26.5036 25.4308 27.7392 27.3657 28.2564C29.291 28.7736 31.312 28.5055 33.0361 27.5093C34.7698 26.5131 36.0055 24.904 36.5227 22.9691C37.0399 21.0438 36.7717 19.0228 35.7756 17.2987C34.3867 14.904 31.8676 13.5631 29.291 13.5631ZM29.3101 29.4154C28.5822 29.4154 27.8446 29.3196 27.1262 29.1281C24.9615 28.5533 23.1608 27.1645 22.0401 25.22C20.9194 23.2852 20.6225 21.0247 21.2067 18.8599C21.791 16.6952 23.1703 14.8849 25.1148 13.7738C29.1186 11.4654 34.2526 12.8447 36.561 16.8389C37.6817 18.7737 37.9786 21.0343 37.3943 23.199C36.8196 25.3637 35.4308 27.1645 33.4863 28.2851C32.2028 29.0418 30.766 29.4154 29.3101 29.4154Z" fill="black"/>
<path fill-rule="evenodd" clip-rule="evenodd" d="M29.2883 15.7086C28.3688 15.7086 27.4588 15.948 26.6351 16.427C24.0968 17.8925 23.2252 21.1491 24.6907 23.697C25.6772 25.402 27.4684 26.3598 29.3075 26.3598C30.2079 26.3598 31.1274 26.1299 31.9607 25.651C33.1868 24.9422 34.068 23.7928 34.4415 22.4231C34.8055 21.0534 34.6235 19.6166 33.9147 18.3905C33.2059 17.1645 32.0565 16.2833 30.6868 15.9097C30.2174 15.7756 29.7481 15.7086 29.2883 15.7086ZM29.3075 27.2602C27.1523 27.2602 25.0546 26.1395 23.9052 24.1472C22.1907 21.1779 23.2156 17.3561 26.1849 15.6415C27.6217 14.8082 29.3075 14.5879 30.9071 15.0189C32.5163 15.45 33.8572 16.4844 34.6906 17.9212C35.5239 19.358 35.7442 21.0438 35.3132 22.6434C34.8821 24.2526 33.8477 25.5935 32.4109 26.4269C31.4339 26.992 30.3611 27.2602 29.3075 27.2602Z" fill="black"/>
<path fill-rule="evenodd" clip-rule="evenodd" d="M36.8509 30.4308C36.6977 30.4308 36.5444 30.3541 36.4582 30.2009L34.5234 26.858C34.3988 26.6377 34.4755 26.3599 34.6862 26.2354C34.9065 26.1109 35.1843 26.1875 35.3088 26.3982L37.2436 29.7411C37.3682 29.9614 37.2915 30.2392 37.0808 30.3637C37.0042 30.4116 36.9276 30.4308 36.8509 30.4308ZM33.2782 32.4997C33.1249 32.4997 32.9717 32.4231 32.8854 32.2698L30.9506 28.9269C30.8261 28.7066 30.9027 28.4289 31.1134 28.3043C31.3337 28.1798 31.6115 28.2564 31.736 28.4672L33.6709 31.8101C33.7954 32.0304 33.7188 32.3081 33.508 32.4327C33.4314 32.4805 33.3548 32.4997 33.2782 32.4997Z" fill="black"/>
<path fill-rule="evenodd" clip-rule="evenodd" d="M33.3175 32.5381L38.0588 40.7468C38.3653 41.2736 38.8538 41.6472 39.4381 41.81C40.032 41.9633 40.645 41.8867 41.1622 41.5897C42.2542 40.9576 42.6277 39.5687 41.9956 38.4767L37.2638 30.268L33.3175 32.5381ZM40.0416 42.7966C39.7638 42.7966 39.486 42.7583 39.2082 42.6817C38.3845 42.4614 37.6948 41.9346 37.2734 41.197L32.3022 32.5956C32.1776 32.3753 32.2543 32.0975 32.465 31.973L37.1968 29.2431C37.3021 29.1856 37.4266 29.1665 37.5416 29.1952C37.6565 29.2239 37.7523 29.3006 37.8194 29.4059L42.7906 38.0074C43.6718 39.5304 43.145 41.4844 41.622 42.356C41.1335 42.6529 40.5875 42.7966 40.0416 42.7966Z" fill="black"/>
</svg>
