<svg width="42" height="42" viewBox="0 0 42 42" fill="none" xmlns="http://www.w3.org/2000/svg">
<g clip-path="url(#clip0_870_2809)">
<path d="M0.46875 38.7313L1.00656 39.9418L20.3054 31.9397L23.6675 32.3432L24.8778 36.0416L23.264 37.5883C22.6589 38.1262 22.4573 39.0002 22.7935 39.8072L23.4659 41.4883L34.628 37.1175L34.0228 35.5037C33.7539 34.6967 33.0142 34.2262 32.1402 34.2262H29.921L28.7107 31.3346L31.6693 29.8554C32.6107 29.3846 33.0142 28.3086 32.678 27.3673L28.8453 17.0793C28.4418 16.0033 27.2986 15.5325 26.2226 15.8687C26.2226 15.8687 26.1556 15.8687 26.1556 15.936L23.3313 17.1463L22.9278 16.1376L24.4746 14.3223C25.5502 13.1117 26.2226 11.6326 26.4245 10.0188L28.3745 7.66529C29.6521 6.18582 29.3832 3.96694 27.9037 2.68906C27.6348 2.48746 27.3659 2.28587 27.097 2.15125C26.3572 1.81504 25.6175 1.74773 24.8108 1.94965L24.6089 1.34421C24.2726 0.268584 23.0624 -0.269556 22.0538 0.133967L7.86546 5.24449C6.78951 5.64801 6.2517 6.79094 6.65522 7.79958V7.86689L6.99143 8.74091C5.24306 9.54796 4.43601 11.5652 5.04113 13.3136C5.51196 14.6585 6.7222 15.5998 8.13437 15.8014L11.2949 16.1376C12.5725 17.0793 14.1189 17.6844 15.6657 17.8187L17.8846 18.0206L18.2881 19.0293C17.8173 19.2982 17.4811 19.769 17.3468 20.3741L16.8759 22.6603L0.46875 29.3173L0.939581 30.5948L10.3536 26.8295L12.6398 33.6881L0.46875 38.7313ZM32.678 35.9073L32.8126 36.3105L24.2053 39.7399L24.0037 39.3364C23.9364 39.0675 24.0037 38.7986 24.1384 38.597L26.4245 36.4451L29.3159 35.5037H32.0056C32.3418 35.5037 32.5437 35.638 32.678 35.9073ZM28.4418 34.2932L26.021 35.1002L25.147 32.5451C25.5502 32.6121 25.8864 32.5451 26.2226 32.3432L27.3659 31.8054L28.4418 34.2932ZM26.6261 16.9447C26.9624 16.8101 27.3659 16.9447 27.5005 17.2809L28.0383 18.693L24.7435 19.769L25.147 21.0465L28.4418 19.9706L29.2485 22.1225L26.0883 23.1981L26.4918 24.476L29.7194 23.4L30.5264 25.5516L27.4332 26.5603L27.8367 27.8381L30.9969 26.7622L31.3331 27.6362C31.4678 27.9724 31.3331 28.3086 30.9969 28.4433L25.6848 31.0657C25.5502 31.133 25.4159 31.133 25.2813 31.133L20.7089 30.5948L18.2208 23.1311L18.6916 20.643C18.7589 20.4414 18.8932 20.2395 19.0951 20.1722L26.6261 16.9447ZM26.5588 3.36149C27.6348 3.83232 28.1729 5.10987 27.7021 6.25313C27.6348 6.45472 27.5005 6.58934 27.3659 6.79094L26.5588 7.79958C26.4918 7.12715 26.3572 6.52203 26.1556 5.84961L25.2813 3.2272C25.7521 3.15989 26.1556 3.2272 26.5588 3.36149ZM6.38599 12.9774C5.98279 11.8341 6.45329 10.6239 7.52925 10.0858L8.47058 12.3723C8.80679 13.179 9.27762 13.9861 9.81544 14.6585L8.40327 14.5239C7.46194 14.4566 6.65522 13.8514 6.38599 12.9774ZM15.9346 16.5411C13.1776 16.2722 10.7568 14.5239 9.74813 11.9015L8.00008 7.46337C7.86546 7.12715 8.00008 6.72363 8.33629 6.58934L22.5243 1.47882C22.7262 1.41151 22.8605 1.41151 23.0624 1.47882C23.1967 1.54613 23.3313 1.68042 23.3986 1.88235L24.8778 6.32044C25.6848 8.80822 25.147 11.4979 23.4659 13.4479L21.3813 15.8687L21.9865 17.4825L19.5656 18.4911L18.8932 16.8101L15.9346 16.5411ZM11.6311 26.2914L13.1776 25.6862L14.8586 30.7968L16.1362 30.3932L14.3881 25.1484L17.0779 24.0725L19.364 30.8641L13.9173 33.1502L11.6311 26.2914Z" fill="black"/>
<path d="M33.6825 11.7671V12.4395H35.0273V11.7671C35.0273 9.88441 36.5068 8.40494 38.3895 8.40494V7.06008C36.5068 7.06008 35.0273 5.58094 35.0273 3.69794V3.02551H33.6825V3.69794C33.6825 5.58094 32.2033 7.06008 30.3203 7.06008V8.40494C32.2033 8.40494 33.6825 9.88441 33.6825 11.7671ZM34.3549 6.11875C34.7584 6.79118 35.2962 7.32931 35.9686 7.73251C35.2962 8.13603 34.7584 8.67417 34.3549 9.3466C33.9514 8.67417 33.4135 8.13603 32.7411 7.73251C33.4135 7.32931 33.9514 6.79118 34.3549 6.11875Z" fill="black"/>
<path d="M4.10042 25.2156V25.888H5.44528V25.2156C5.44528 23.3329 6.92475 21.8534 8.80742 21.8534V20.5086C6.92475 20.5086 5.44528 19.0294 5.44528 17.1464V16.474H4.10042V17.1464C4.10042 19.0294 2.62128 20.5086 0.738281 20.5086V21.8534C2.62128 21.8534 4.10042 23.3329 4.10042 25.2156ZM4.77285 19.5672C5.17637 20.2397 5.71418 20.7778 6.38661 21.181C5.71418 21.5845 5.17637 22.1227 4.77285 22.7951C4.36933 22.1227 3.83152 21.5845 3.15909 21.181C3.83152 20.7778 4.36933 20.2397 4.77285 19.5672Z" fill="black"/>
<path d="M37.7226 17.1464V16.474H36.3778V17.1464C36.3778 19.0294 34.8986 20.5086 33.0156 20.5086V21.8534C34.8986 21.8534 36.3778 23.3329 36.3778 25.2156V25.888H37.7226V25.2156C37.7226 23.3329 39.2021 21.8534 41.0848 21.8534V20.5086C39.2021 20.5086 37.7226 19.0294 37.7226 17.1464ZM37.0502 22.7951C36.6467 22.1227 36.1089 21.5845 35.4364 21.181C36.1089 20.7778 36.6467 20.2397 37.0502 19.5672C37.4537 20.2397 37.9915 20.7778 38.664 21.181C37.9915 21.5845 37.4537 22.1227 37.0502 22.7951Z" fill="black"/>
<path d="M20.4432 11.9688L21.3845 12.9102C25.0829 9.21183 21.6534 3.5635 21.4519 3.36157L20.3086 4.10131C20.3759 4.10131 23.4018 9.01023 20.4432 11.9688Z" fill="black"/>
</g>
<defs>
<clipPath id="clip0_870_2809">
<rect width="41.4883" height="41.4883" fill="white"/>
</clipPath>
</defs>
</svg>
