<svg width="40" height="40" viewBox="0 0 40 40" fill="none" xmlns="http://www.w3.org/2000/svg">
<g clip-path="url(#clip0_870_2768)">
<path d="M9.15221 11.6461H27.4533C27.9132 11.6461 28.2852 11.274 28.2852 10.8142C28.2852 10.3544 27.9132 9.9823 27.4533 9.9823H9.15221C8.69239 9.9823 8.32031 10.3544 8.32031 10.8142C8.32039 11.2741 8.69247 11.6461 9.15221 11.6461Z" fill="black"/>
<path d="M19.1346 19.9648H9.15221C8.69239 19.9648 8.32031 20.3369 8.32031 20.7967C8.32031 21.2566 8.69239 21.6286 9.15221 21.6286H19.1346C19.5944 21.6286 19.9665 21.2566 19.9665 20.7967C19.9665 20.3369 19.5944 19.9648 19.1346 19.9648Z" fill="black"/>
<path d="M36.7452 4.9912C36.697 4.9912 36.6503 5.00328 36.6023 5.00555V4.9912C36.6023 3.15607 35.1091 1.6637 33.2748 1.6637H3.3275C1.49315 1.6637 0 3.15607 0 4.9912V37.4341C0 37.7704 0.20308 38.0742 0.513393 38.2026C0.615791 38.2456 0.724584 38.266 0.831817 38.266C1.04792 38.266 1.26075 38.1815 1.42 38.0222L9.495 29.9473H33.2748C35.1091 29.9473 36.6023 28.455 36.6023 26.6198V12.822L38.9971 10.4276C38.9971 10.4276 38.9971 10.4276 38.9971 10.4268C39.5901 9.83376 39.9297 9.01325 39.9297 8.17567C39.9297 6.41938 38.5016 4.9912 36.7452 4.9912ZM34.9385 26.6198C34.9385 27.5369 34.1927 28.2835 33.2748 28.2835H9.15053C8.92959 28.2835 8.71832 28.3712 8.56234 28.5272L1.66371 35.4259V4.9912C1.66371 4.07406 2.40951 3.32749 3.32742 3.32749H33.2747C34.1928 3.32749 34.9385 4.07406 34.9385 4.9912V5.55941C34.7806 5.66797 34.6295 5.78737 34.4933 5.92377L25.4421 14.9736H9.15053C8.69071 14.9736 8.31863 15.3457 8.31863 15.8055C8.31863 16.2653 8.69071 16.6374 9.15053 16.6374H24.1074L23.3086 20.6335C23.2533 20.9065 23.3394 21.1884 23.5361 21.3849C23.6937 21.5425 23.9065 21.6286 24.1242 21.6286C24.1779 21.6286 24.2331 21.6229 24.2867 21.6124L28.4444 20.7805C28.6069 20.748 28.7548 20.6692 28.8701 20.553L34.9385 14.4856V26.6198ZM27.8725 19.1988L25.1852 19.7366L25.723 17.046L33.2744 9.49459L35.4258 11.646L27.8725 19.1988ZM37.8207 9.25127L36.6022 10.4698L34.4506 8.31823L35.6695 7.09928C35.9522 6.81736 36.3438 6.65491 36.7451 6.65491C37.5835 6.65491 38.2659 7.3373 38.2659 8.17567C38.266 8.57535 38.1035 8.96779 37.8207 9.25127Z" fill="black"/>
</g>
<defs>
<clipPath id="clip0_870_2768">
<rect width="39.9297" height="39.9297" fill="white"/>
</clipPath>
</defs>
</svg>
