<?xml version="1.0" encoding="UTF-8"?>
<svg id="Layer_1" data-name="Layer 1" xmlns="http://www.w3.org/2000/svg" viewBox="0 0 794.17 180.04">
  <defs>
    <style>
      .cls-1 {
        fill: #6346fa;
      }

      .cls-2 {
        fill: #1b1b2b;
      }

      .cls-3 {
        fill: #9c97ff;
      }
    </style>
  </defs>
  <g>
    <path class="cls-2" d="M3.68,163.31c-2.46-2.31-3.68-5.49-3.68-9.54V13.01C0,8.97,1.23,5.78,3.68,3.47S9.61,0,14.1,0s7.8,1.16,10.41,3.47c2.61,2.31,3.9,5.5,3.9,9.54l.22,60.08c5.06-5.49,11.13-9.68,18.21-12.57,7.09-2.89,14.61-4.34,22.55-4.34,17.93,0,31.95,4.88,42.08,14.64,10.12,9.76,15.18,23.31,15.18,40.67s-5.1,30.91-15.29,40.67-24.4,14.64-42.61,14.64c-8.24,0-15.48-1.34-21.69-4.01-6.22-2.67-12.43-7.12-18.65-13.33v4.34c0,4.05-1.3,7.23-3.9,9.54s-6.08,3.47-10.41,3.47-7.96-1.16-10.41-3.47h0ZM89.14,135.56c5.92-5.78,8.89-13.8,8.89-24.07s-2.97-18.29-8.89-24.07c-5.93-5.78-14.17-8.67-24.72-8.67-11.28,0-20.09,2.89-26.46,8.67-6.37,5.78-9.54,13.81-9.54,24.07s3.17,18.29,9.54,24.07c6.36,5.78,15.18,8.67,26.46,8.67,10.55,0,18.79-2.89,24.72-8.67Z"/>
    <path class="cls-2" d="M325.45,70.82c-10.12-9.76-24.15-14.64-42.08-14.64-7.96,0-15.48,1.45-22.55,4.34-7.09,2.89-13.16,7.09-18.21,12.57l-.22-60.08c0-4.04-1.3-7.23-3.9-9.54C235.89,1.15,232.41,0,228.07,0s-7.96,1.16-10.41,3.47c-2.46,2.31-3.68,5.5-3.68,9.54v4.48c1.91,1.21,3.73,2.52,5.41,3.97,10.27,8.78,15.4,20.93,15.4,36.46,0,8.24-2.39,16.16-7.16,23.77-3.17,5.06-7.74,10.48-13.66,16.23v40.9h8.32c8.53,0,12.79,6.83,12.79,15.9,0,6.12-2.01,10.13-6.04,12.04,3.88-.16,7.03-1.3,9.43-3.43,2.61-2.31,3.9-5.49,3.9-9.54v-4.34c6.22,6.22,12.43,10.66,18.65,13.33,6.22,2.67,13.44,4.01,21.69,4.01,18.21,0,32.43-4.88,42.61-14.64,10.19-9.76,15.29-23.31,15.29-40.67s-5.06-30.91-15.18-40.67h.01ZM303.11,135.56c-5.93,5.78-14.17,8.67-24.72,8.67-11.28,0-20.09-2.89-26.46-8.67-6.37-5.78-9.54-13.8-9.54-24.07s3.17-18.29,9.54-24.07c6.36-5.78,15.18-8.67,26.46-8.67,10.55,0,18.79,2.89,24.72,8.67,5.92,5.78,8.89,13.81,8.89,24.07s-2.97,18.29-8.89,24.07Z"/>
    <path class="cls-1" d="M215.05,143.85h-70.71l50.97-39.91c10.99-8.53,18.87-16.33,23.64-23.42,4.77-7.09,7.16-14.45,7.16-22.13,0-14.45-5.13-25.77-15.4-33.94-10.27-8.16-24.58-12.26-42.94-12.26-12.87,0-24.44,2.17-34.7,6.51-10.27,4.34-18.73,10.55-25.38,18.65-2.46,3.18-3.68,6.22-3.68,9.11,0,4.2,1.96,7.59,5.86,10.19,2.17,1.6,4.55,2.39,7.16,2.39,4.04,0,7.66-2.17,10.85-6.51,4.34-5.78,9.87-10.16,16.6-13.12,6.73-2.97,14.5-4.44,23.31-4.44s16.49,2.06,21.69,6.18c5.21,4.12,7.8,9.87,7.8,17.25,0,5.5-1.16,10.05-3.47,13.66-2.31,3.62-7.01,8.17-14.1,13.66l-44.7,34.96c-.68,15.58-5.75,27.91-15.2,36.97-3.08,2.95-6.53,5.44-10.35,7.5,1.65.68,3.52,1.03,5.61,1.03h99.99c8.53,0,12.79-3.68,12.79-11.06s-4.27-11.28-12.79-11.28h-.01Z"/>
  </g>
  <g>
    <path class="cls-2" d="M379.5,136.49c-6.02-5.53-9.03-13.17-9.03-22.93s3.01-17.16,9.03-22.69c6.02-5.53,14.27-8.29,24.76-8.29,5.85,0,11.1.94,15.73,2.81,4.63,1.87,8.29,4.51,10.98,7.93.89,1.14,1.34,2.28,1.34,3.42,0,1.87-.98,3.5-2.93,4.88-.9.65-1.91.98-3.05.98-2.28,0-4.23-.89-5.85-2.68-1.87-2.03-4.19-3.6-6.95-4.7-2.76-1.1-5.85-1.65-9.27-1.65-6.34,0-11.26,1.75-14.76,5.25-3.5,3.5-5.24,8.42-5.24,14.76s1.75,11.4,5.24,14.94c3.5,3.54,8.42,5.31,14.76,5.31,7.07,0,12.97-2.28,17.69-6.83,1.95-1.95,3.86-2.93,5.73-2.93,1.38,0,2.56.45,3.54,1.34,1.71,1.3,2.56,2.89,2.56,4.76,0,1.38-.53,2.56-1.59,3.54-3.82,3.82-7.99,6.63-12.5,8.42-4.51,1.79-9.66,2.68-15.43,2.68-10.49,0-18.74-2.76-24.76-8.29Z"/>
    <path class="cls-2" d="M446.17,139.3c-4.63-3.66-6.95-8.54-6.95-14.64s2.46-10.81,7.38-14.39c4.92-3.58,11.57-5.37,19.94-5.37s14.47,1.87,19.03,5.61v-4.64c0-4.06-1.28-7.17-3.84-9.33-2.56-2.15-6.32-3.23-11.28-3.23-6.99,0-13.01,1.55-18.05,4.63-1.71.98-3.25,1.46-4.63,1.46-1.46,0-2.81-.65-4.03-1.95-.81-.89-1.22-1.95-1.22-3.17,0-1.95.85-3.5,2.56-4.64,2.93-2.2,6.63-3.92,11.1-5.18,4.47-1.26,9.15-1.89,14.03-1.89,9.19,0,16.38,2.07,21.59,6.22,5.2,4.15,7.81,9.88,7.81,17.2v32.69c0,1.87-.61,3.35-1.83,4.45-1.22,1.1-2.89,1.65-5,1.65s-3.76-.53-4.94-1.59c-1.18-1.06-1.77-2.52-1.77-4.39v-2.32c-4.8,5.53-11.91,8.29-21.34,8.29-7.73,0-13.91-1.83-18.54-5.49ZM480.81,132.04c3.25-1.83,4.88-4.33,4.88-7.5s-1.59-5.53-4.76-7.32c-3.17-1.79-7.52-2.68-13.05-2.68-4.8,0-8.52.9-11.16,2.68-2.64,1.79-3.96,4.27-3.96,7.44s1.28,5.75,3.84,7.5c2.56,1.75,6.24,2.62,11.04,2.62,5.53,0,9.92-.91,13.17-2.74Z"/>
    <path class="cls-2" d="M591.9,178.33c-1.18-1.14-1.77-2.73-1.77-4.76v-84.52c0-2.03.59-3.62,1.77-4.76,1.18-1.14,2.82-1.71,4.94-1.71s3.78.59,5,1.77c1.22,1.18,1.83,2.74,1.83,4.7v4.27c3.42-3.66,7.11-6.36,11.1-8.11,3.98-1.75,8.58-2.62,13.78-2.62,9.68,0,17.36,2.77,23.05,8.29,5.69,5.53,8.54,13.09,8.54,22.69,0,6.34-1.3,11.87-3.9,16.59-2.6,4.72-6.3,8.34-11.1,10.85-4.8,2.52-10.45,3.78-16.95,3.78-5.12,0-9.63-.83-13.54-2.5-3.9-1.67-7.52-4.33-10.85-7.99v39.27c0,1.95-.63,3.52-1.89,4.7-1.26,1.18-2.95,1.77-5.06,1.77s-3.76-.57-4.94-1.71ZM640.94,128.44c3.62-3.58,5.43-8.58,5.43-15s-1.79-11.24-5.37-14.7c-3.58-3.45-8.66-5.18-15.25-5.18-6.91,0-12.32,1.77-16.22,5.31-3.9,3.54-5.85,8.44-5.85,14.7s1.99,11.1,5.98,14.76c3.98,3.66,9.35,5.49,16.1,5.49s11.57-1.79,15.19-5.37Z"/>
    <path class="cls-2" d="M675.67,137.65c-4.63-4.76-6.95-11.36-6.95-19.82v-28.78c0-2.03.63-3.62,1.89-4.76,1.26-1.14,2.95-1.71,5.06-1.71s3.76.57,4.94,1.71c1.18,1.14,1.77,2.73,1.77,4.76v28.78c0,5.04,1.34,8.96,4.03,11.77,2.68,2.81,6.42,4.21,11.22,4.21,6.02,0,10.81-1.93,14.39-5.79,3.58-3.86,5.37-9.09,5.37-15.67v-23.3c0-2.03.61-3.62,1.83-4.76,1.22-1.14,2.89-1.71,5-1.71s3.78.57,5,1.71c1.22,1.14,1.83,2.73,1.83,4.76v49.28c0,2.03-.57,3.62-1.71,4.76-1.14,1.14-2.76,1.71-4.88,1.71s-3.76-.59-4.94-1.77c-1.18-1.18-1.77-2.74-1.77-4.7v-4.76c-5.94,7.48-13.54,11.22-22.81,11.22-8.21,0-14.64-2.38-19.27-7.13Z"/>
    <path class="cls-2" d="M751.42,141.68c-4.76-2.07-8.6-4.9-11.53-8.48-.98-1.38-1.46-2.68-1.46-3.9,0-1.95.93-3.49,2.81-4.63,1.14-.65,2.2-.98,3.17-.98,1.54,0,3.09.77,4.63,2.32,2.76,2.77,5.59,4.78,8.48,6.04,2.89,1.26,6.36,1.89,10.43,1.89,3.74,0,6.79-.53,9.15-1.59,2.36-1.06,3.54-2.48,3.54-4.27,0-1.38-.43-2.54-1.28-3.48-.85-.93-2.34-1.85-4.45-2.74-2.12-.89-5.41-2.07-9.88-3.54-8.62-2.76-14.7-5.59-18.23-8.48-3.54-2.89-5.31-6.57-5.31-11.04,0-5.04,2.15-9,6.46-11.89,4.31-2.89,10.16-4.33,17.56-4.33,5.61,0,10.73.9,15.37,2.68,4.64,1.79,8.05,4.15,10.25,7.07.89,1.14,1.34,2.36,1.34,3.66,0,1.63-.85,3.01-2.56,4.15-1.06.73-2.28,1.1-3.66,1.1-1.87,0-3.74-.85-5.61-2.56-3.66-3.5-8.74-5.25-15.25-5.25s-10.12,1.79-10.12,5.37c0,1.38.45,2.52,1.34,3.42.89.9,2.46,1.77,4.7,2.62,2.24.85,5.87,2.09,10.92,3.72,5.53,1.71,9.88,3.46,13.05,5.25,3.17,1.79,5.45,3.8,6.83,6.04,1.38,2.24,2.07,4.98,2.07,8.23,0,5.04-2.28,9.09-6.83,12.14-4.56,3.05-10.82,4.57-18.78,4.57-6.67,0-12.38-1.04-17.14-3.11Z"/>
    <path class="cls-1" d="M522.41,128.99v-36c.33.04.64.11.97.16,4.1.83,20,5.66,21.48,30.5v-18.9s-3.97-15.99-26.6-22.38c-1.2-.35-1.93-.51-1.93-.51v54.43c22.43-.87,25.56,8.64,25.56,8.64-8.69-4.58-28.89-4.8-28.89-4.8v-44.92h1.16v-6.3l-4.98-2.41v58.43c30.05-.58,36.2,5.97,36.2,5.97,3.83-20-22.95-21.91-22.95-21.91Z"/>
    <path class="cls-3" d="M576.76,98.38v33.59l4.17-2.67v-30.74c-.93-.11-2.37-.23-4.17-.18Z"/>
    <path class="cls-3" d="M544.85,104.76v18.9c5.94-17.71,19.94-22.72,19.94-22.72v-4.17c-8,1.28-14.84,10.2-14.84,10.2.35-.53.69-1.04,1.04-1.53,1.46-2.01,4.48-5.69,9.06-9.15.03-.02.06-.04.09-.06.11-.08.21-.16.32-.25,1.86-1.37,3.95-2.7,6.3-3.87,0,0,0,0,0,0v47.19l7.54-5.56v-51.88c-24.23,7.01-29.45,22.9-29.45,22.9Z"/>
  </g>
</svg>