<svg width="41" height="41" viewBox="0 0 41 41" fill="none" xmlns="http://www.w3.org/2000/svg">
<g clip-path="url(#clip0_870_2802)">
<path d="M40.6273 27.7211L37.8156 13.607C37.7449 13.2524 37.5399 12.9462 37.238 12.7447C36.9362 12.5432 36.5747 12.471 36.2201 12.5417L32.6019 13.2625C32.6018 13.2625 32.6018 13.2625 32.6018 13.2625C31.8683 13.4087 31.3904 14.1244 31.5365 14.8579L31.5712 15.0322C29.4026 15.7515 26.7669 15.9587 23.4877 13.2531C21.9939 12.0208 20.0473 11.9802 18.6436 13.152L17.1795 14.3745H9.20601C9.11691 13.8328 8.70308 13.376 8.13381 13.2625L4.51556 12.5416C4.16076 12.4709 3.79944 12.5431 3.49762 12.7446C3.1958 12.9461 2.99072 13.2524 2.92007 13.6069L0.10832 27.7211C-0.0378162 28.4546 0.44013 29.1702 1.17368 29.3165L4.79185 30.0373C4.88071 30.055 4.96988 30.0638 5.05858 30.0638C5.32381 30.0638 5.58362 29.9854 5.80979 29.8344C6.11161 29.6328 6.31677 29.3266 6.38742 28.972L6.40452 28.8861L14.987 37.4684C15.4959 37.9774 16.175 38.2578 16.8987 38.2578C17.6225 38.2578 18.3016 37.9774 18.8104 37.4684C19.1734 37.1055 19.4201 36.6563 19.5319 36.166L20.7249 37.359C21.7792 38.4131 23.4944 38.413 24.5486 37.3588C24.9199 36.9875 25.1603 36.534 25.2701 36.0565C25.776 36.5488 26.4439 36.8195 27.1551 36.8195C27.8789 36.8195 28.5579 36.539 29.067 36.0299C29.6529 35.4439 29.9132 34.6537 29.8476 33.8862C29.9241 33.8925 30.0011 33.8958 30.0787 33.8958C30.8025 33.8958 31.4814 33.6154 31.9905 33.1063C32.7039 32.393 32.9477 31.3274 32.6536 30.3812L34.3007 28.7342L34.3481 28.9721C34.4187 29.3267 34.6239 29.6329 34.9257 29.8345C35.152 29.9855 35.4117 30.0638 35.6769 30.0638C35.7655 30.0638 35.8548 30.0551 35.9437 30.0374L39.5618 29.3165C40.2955 29.1702 40.7735 28.4546 40.6273 27.7211ZM5.10297 28.7757C5.08953 28.7847 5.06781 28.7944 5.04061 28.789L1.42243 28.0681C1.37868 28.0595 1.34789 28.0134 1.35665 27.9697L4.1684 13.8557C4.17381 13.8286 4.19099 13.8122 4.20444 13.8032C4.21526 13.796 4.23125 13.7884 4.25113 13.7884C4.25607 13.7884 4.2614 13.7889 4.26689 13.79L7.88506 14.5109C7.92881 14.5196 7.9596 14.5656 7.95084 14.6093L5.13909 28.7232C5.13368 28.7504 5.1165 28.7668 5.10297 28.7757ZM31.0907 32.2061C30.822 32.4748 30.4626 32.6229 30.0789 32.6229C29.6951 32.6229 29.3357 32.4749 29.067 32.2062L22.9113 26.0505C22.6627 25.8019 22.2599 25.802 22.0113 26.0505C21.7628 26.2991 21.7628 26.702 22.0113 26.9505L28.167 33.1061C28.7249 33.664 28.7249 34.5718 28.167 35.1298C27.8984 35.3985 27.5389 35.5465 27.1551 35.5465C26.7713 35.5465 26.412 35.3986 26.1434 35.1299L19.6388 28.6255C19.3904 28.3769 18.9874 28.377 18.7388 28.6255C18.4903 28.8741 18.4903 29.2769 18.7389 29.5254L23.6481 34.4347L23.6485 34.4351H23.6486C24.2064 34.9929 24.2064 35.9006 23.6485 36.4586C23.0906 37.0167 22.1826 37.0165 21.6249 36.4587L16.3665 31.2004C16.1181 30.952 15.7152 30.9518 15.4665 31.2004C15.218 31.4489 15.218 31.8519 15.4665 32.1004L17.9106 34.5444C18.1794 34.8131 18.3272 35.1725 18.3272 35.5563C18.3272 35.94 18.1793 36.2994 17.9105 36.5682C17.6419 36.8367 17.2826 36.9847 16.8987 36.9847C16.5149 36.9847 16.1556 36.8367 15.8869 36.5681L6.70355 27.385L9.0419 15.6473H15.6551L13.7921 17.2028C12.9855 17.8761 12.6391 18.7945 12.8416 19.7221L14.3133 26.4661C14.35 26.6339 14.4528 26.7798 14.5986 26.8706C14.7444 26.9613 14.9207 26.9895 15.0874 26.9484C16.8548 26.5128 18.0366 25.661 18.7003 24.3442C19.2739 23.2062 19.3878 21.9113 19.5084 20.5406C19.5237 20.3663 19.5392 20.1911 19.5557 20.0154C19.5577 20.0005 19.5601 19.99 19.5621 19.983C19.7816 19.8905 20.8618 20.1045 22.5162 21.608L31.3787 30.5997C31.6222 31.1377 31.5098 31.7872 31.0907 32.2061ZM31.9096 29.3252L23.4104 20.7022C23.4024 20.6941 23.3943 20.6862 23.3858 20.6785C21.6893 19.1328 20.092 18.428 19.1119 18.7935C18.6509 18.9655 18.3515 19.3585 18.2909 19.8715C18.2903 19.8765 18.2897 19.8816 18.2892 19.8866C18.2721 20.0682 18.2562 20.2491 18.2404 20.429C18.034 22.774 17.8678 24.6624 15.411 25.5268L14.0851 19.4509C13.951 18.8367 14.355 18.391 14.6077 18.18L19.4594 14.1292C20.378 13.3624 21.6713 13.4049 22.6777 14.2351C26.3644 17.2768 29.4506 17.0447 31.8216 16.2894L34.0018 27.2332L31.9096 29.3252ZM39.3132 28.0681L35.6951 28.789C35.6678 28.7944 35.646 28.7847 35.6327 28.7757C35.6192 28.7668 35.602 28.7504 35.5966 28.7232L32.7848 14.6093C32.7761 14.5656 32.8068 14.5195 32.8505 14.5108L36.4688 13.79C36.4959 13.7845 36.5177 13.7942 36.5312 13.8032C36.5447 13.8122 36.5619 13.8285 36.5673 13.8557L39.379 27.9697C39.3878 28.0135 39.357 28.0595 39.3132 28.0681ZM19.7314 7.56528V3.10919C19.7314 2.75773 20.0164 2.47278 20.3678 2.47278C20.7193 2.47278 21.0042 2.75773 21.0042 3.10919V7.56528C21.0042 7.91674 20.7193 8.20169 20.3678 8.20169C20.0164 8.20169 19.7314 7.91674 19.7314 7.56528ZM13.9973 4.98669C13.8214 4.68233 13.9258 4.29308 14.2302 4.11735C14.5347 3.94162 14.9239 4.04599 15.0995 4.35028L17.3276 8.20933C17.5034 8.51369 17.399 8.90294 17.0947 9.07867C16.9944 9.13651 16.885 9.16403 16.7771 9.16403C16.5571 9.16403 16.3432 9.04987 16.2253 8.84574L13.9973 4.98669ZM9.7371 8.61043C9.91275 8.30599 10.302 8.20161 10.6064 8.3775L14.4656 10.6055C14.7699 10.7812 14.8743 11.1705 14.6985 11.4748C14.5807 11.679 14.3667 11.7931 14.1467 11.7931C14.0389 11.7931 13.9294 11.7656 13.8292 11.7078L9.97003 9.47977C9.66566 9.30404 9.56129 8.91479 9.7371 8.61043ZM23.4081 8.20941L25.6362 4.35036C25.812 4.04591 26.2013 3.94162 26.5056 4.11743C26.8099 4.29316 26.9143 4.68241 26.7385 4.98677L24.5104 8.84582C24.3926 9.04995 24.1786 9.16411 23.9586 9.16411C23.8507 9.16411 23.7413 9.13658 23.6411 9.07875C23.3366 8.90302 23.2323 8.51377 23.4081 8.20941ZM26.2702 10.6055L30.1292 8.3775C30.4337 8.20177 30.8229 8.30614 30.9986 8.61043C31.1744 8.91479 31.07 9.30404 30.7656 9.47977L26.9066 11.7078C26.8063 11.7656 26.6969 11.7931 26.589 11.7931C26.369 11.7931 26.1551 11.679 26.0372 11.4748C25.8615 11.1705 25.9658 10.7812 26.2702 10.6055Z" fill="black"/>
</g>
<defs>
<clipPath id="clip0_870_2802">
<rect width="40.7305" height="40.7305" fill="white"/>
</clipPath>
</defs>
</svg>
