<svg width="40" height="40" viewBox="0 0 40 40" fill="none" xmlns="http://www.w3.org/2000/svg">
<g clip-path="url(#clip0_870_2717)">
<path d="M39.2833 31.9241C39.2829 31.9183 39.283 31.9126 39.2825 31.9069C39.2804 31.8841 39.2771 31.8618 39.2724 31.8399C39.272 31.8378 39.2713 31.8356 39.2707 31.8335C39.2662 31.8134 39.2606 31.7937 39.254 31.7745C39.2522 31.7694 39.2503 31.7644 39.2484 31.7593C39.242 31.7419 39.2347 31.725 39.2266 31.7085C39.2252 31.7056 39.2243 31.7026 39.2229 31.6996L36.1451 25.629V5.65651C36.1451 5.04222 35.6454 4.54248 35.0311 4.54248H4.25392C3.63963 4.54248 3.1399 5.04222 3.1399 5.65651V25.6289L0.0622271 31.6996C0.0607692 31.7025 0.0598485 31.7055 0.0584674 31.7084C0.0504108 31.7249 0.0431983 31.7419 0.0366764 31.7592C0.0347582 31.7643 0.0328399 31.7693 0.0310752 31.7745C0.0245532 31.7937 0.0188753 31.8134 0.0143483 31.8335C0.0138879 31.8356 0.0131974 31.8377 0.012737 31.8398C0.00805653 31.8617 0.00475719 31.884 0.00268551 31.9068C0.00214841 31.9125 0.00214841 31.9183 0.00184149 31.9239C0.0010742 31.9359 0 31.9477 0 31.9598V33.4197C0 34.1493 0.593497 34.7428 1.32311 34.7428H37.962C38.6917 34.7428 39.2852 34.1493 39.2852 33.4197V31.9598C39.2852 31.9477 39.2841 31.9359 39.2833 31.9241ZM4.29091 5.69357H34.9943V25.1911H4.29091V5.69357ZM4.06885 26.3419H35.2162L37.7727 31.3843H25.1293L24.4947 29.0833C24.3655 28.6148 23.9359 28.2877 23.45 28.2877H15.835C15.3491 28.2877 14.9195 28.6148 14.7903 29.0832L14.1557 31.3843H1.5124L4.06885 26.3419ZM23.9354 31.3844H15.3498L15.8863 29.4387H23.3988L23.9354 31.3844ZM38.1342 33.4196C38.1342 33.5145 38.057 33.5918 37.962 33.5918H1.32311C1.2282 33.5918 1.15093 33.5145 1.15093 33.4196V32.5352H38.1342V33.4196Z" fill="black"/>
<path d="M33.1921 16.4012C32.8742 16.4012 32.6166 16.6588 32.6166 16.9767V22.8123H6.67046V16.9767C6.67046 16.6588 6.41288 16.4012 6.095 16.4012C5.77711 16.4012 5.51953 16.6588 5.51953 16.9767V23.0608C5.51953 23.5584 5.92428 23.9633 6.42194 23.9633H32.8652C33.3628 23.9633 33.7676 23.5585 33.7676 23.0608V16.9767C33.7676 16.659 33.51 16.4012 33.1921 16.4012Z" fill="black"/>
<path d="M32.8651 6.92114H6.42194C5.92435 6.92114 5.51953 7.32589 5.51953 7.82355V13.9077C5.51953 14.2256 5.77711 14.4832 6.095 14.4832C6.41288 14.4832 6.67046 14.2256 6.67046 13.9077V8.07207H32.6166V13.9077C32.6166 14.2256 32.8742 14.4832 33.1921 14.4832C33.51 14.4832 33.7675 14.2256 33.7675 13.9077V7.82355C33.7675 7.32581 33.3628 6.92114 32.8651 6.92114Z" fill="black"/>
</g>
<defs>
<clipPath id="clip0_870_2717">
<rect width="39.2852" height="39.2852" fill="white"/>
</clipPath>
</defs>
</svg>
