<svg width="39" height="39" viewBox="0 0 39 39" fill="none" xmlns="http://www.w3.org/2000/svg">
<g clip-path="url(#clip0_870_2776)">
<path d="M26.3291 24.2746C25.9089 24.2746 25.5681 24.6153 25.5681 25.0355V30.2861C25.5681 32.3841 23.8613 34.0909 21.7633 34.0909H13.5474C13.1273 34.0909 12.7868 34.4313 12.7865 34.8513L12.7854 36.3643L10.9692 34.5481C10.8516 34.2782 10.5825 34.0909 10.2713 34.0909H5.32669C3.22874 34.0909 1.52191 32.3841 1.52191 30.2861V18.5674C1.52191 16.4695 3.22874 14.7626 5.32669 14.7626H13.0123C13.4325 14.7626 13.7733 14.422 13.7733 14.0017C13.7733 13.5814 13.4325 13.2407 13.0123 13.2407H5.32669C2.38955 13.2407 0 15.6303 0 18.5674V30.2861C0 33.2233 2.38955 35.6128 5.32669 35.6128H9.88162L13.0069 38.7381C13.1525 38.8837 13.3471 38.961 13.5452 38.961C13.6431 38.961 13.7419 38.9421 13.8359 38.9032C14.1203 38.7856 14.3057 38.5083 14.306 38.2006L14.3078 35.6128H21.7633C24.7005 35.6128 27.09 33.2233 27.09 30.2861V25.0355C27.09 24.6153 26.7493 24.2746 26.3291 24.2746Z" fill="black"/>
<path d="M27.9041 0H25.9782C19.8796 0 14.918 4.96158 14.918 11.0602C14.918 17.1588 19.8796 22.1203 25.9781 22.1203H27.904C28.8559 22.1203 29.798 21.9994 30.7112 21.7604L33.5561 24.6038C33.7017 24.7493 33.8962 24.8266 34.0942 24.8266C34.1923 24.8266 34.2912 24.8076 34.3853 24.7686C34.6696 24.6508 34.855 24.3733 34.855 24.0656V19.663C36.0595 18.6876 37.0601 17.4553 37.7623 16.0788C38.5599 14.5153 38.9642 12.8268 38.9642 11.0602C38.9642 4.96158 34.0026 0 27.9041 0ZM33.6362 18.6841C33.4454 18.8279 33.3331 19.053 33.3331 19.292V22.2293L31.471 20.3681C31.3261 20.2234 31.1317 20.1454 30.933 20.1454C30.8584 20.1454 30.7831 20.1564 30.7096 20.179C29.8038 20.4574 28.8599 20.5985 27.9041 20.5985H25.9782C20.7187 20.5985 16.4399 16.3196 16.4399 11.0602C16.4399 5.80077 20.7187 1.52191 25.9782 1.52191H27.9041C33.1635 1.52191 37.4423 5.80077 37.4423 11.0602C37.4423 14.0835 36.055 16.8624 33.6362 18.6841Z" fill="black"/>
<path d="M30.3613 8.3265C30.2515 6.73344 28.9673 5.44925 27.3741 5.33944C26.471 5.27743 25.6092 5.58204 24.9495 6.19788C24.2989 6.8052 23.9258 7.66371 23.9258 8.55334C23.9258 8.97362 24.2665 9.3143 24.6867 9.3143C25.1069 9.3143 25.4477 8.97362 25.4477 8.55334C25.4477 8.07706 25.6396 7.63563 25.988 7.31047C26.336 6.98562 26.7909 6.82483 27.2696 6.85786C28.1088 6.91569 28.7852 7.5921 28.843 8.43121C28.9014 9.27868 28.3454 10.0276 27.521 10.2121C26.853 10.3615 26.3866 10.942 26.3866 11.6236V13.4518C26.3866 13.872 26.7273 14.2127 27.1475 14.2127C27.5678 14.2127 27.9085 13.872 27.9084 13.4518V11.6844C29.4417 11.3139 30.4705 9.91089 30.3613 8.3265Z" fill="black"/>
<path d="M27.6896 15.9236C27.548 15.7821 27.3517 15.7007 27.1516 15.7007C26.9514 15.7007 26.7551 15.7821 26.6136 15.9236C26.472 16.0652 26.3906 16.2615 26.3906 16.4616C26.3906 16.6625 26.4721 16.8589 26.6136 17.0004C26.7551 17.1419 26.9514 17.2226 27.1516 17.2226C27.3517 17.2226 27.548 17.1419 27.6896 17.0004C27.8311 16.8581 27.9125 16.6625 27.9125 16.4616C27.9125 16.2615 27.831 16.0652 27.6896 15.9236Z" fill="black"/>
<path d="M20.9226 23.5897H4.86642C4.44622 23.5897 4.10547 23.9304 4.10547 24.3507C4.10547 24.771 4.44622 25.1116 4.86642 25.1116H20.9226C21.3429 25.1116 21.6835 24.771 21.6835 24.3507C21.6835 23.9304 21.3428 23.5897 20.9226 23.5897Z" fill="black"/>
<path d="M21.4629 28.074C21.3215 27.9325 21.1251 27.8511 20.925 27.8511C20.7249 27.8511 20.5286 27.9325 20.387 28.074C20.2454 28.2156 20.1641 28.4119 20.1641 28.612C20.1641 28.8122 20.2455 29.0085 20.387 29.15C20.5286 29.2916 20.7249 29.373 20.925 29.373C21.1251 29.373 21.3215 29.2916 21.4629 29.15C21.6046 29.0085 21.686 28.8129 21.686 28.612C21.686 28.4119 21.6045 28.2156 21.4629 28.074Z" fill="black"/>
<path d="M17.9295 27.8511H4.86642C4.44622 27.8511 4.10547 28.1918 4.10547 28.612C4.10547 29.0323 4.44622 29.373 4.86642 29.373H17.9295C18.3498 29.373 18.6905 29.0323 18.6905 28.612C18.6905 28.1918 18.3497 27.8511 17.9295 27.8511Z" fill="black"/>
<path d="M15.9764 19.3284H4.86642C4.44622 19.3284 4.10547 19.669 4.10547 20.0893C4.10547 20.5096 4.44622 20.8503 4.86642 20.8503H15.9764C16.3967 20.8503 16.7373 20.5096 16.7373 20.0893C16.7373 19.669 16.3966 19.3284 15.9764 19.3284Z" fill="black"/>
</g>
<defs>
<clipPath id="clip0_870_2776">
<rect width="38.9609" height="38.9609" fill="white"/>
</clipPath>
</defs>
</svg>
