<svg width="46" height="46" viewBox="0 0 46 46" fill="none" xmlns="http://www.w3.org/2000/svg">
<g clip-path="url(#clip0_870_2702)">
<path d="M44.7783 12.1002L22.9695 5.00796C22.7912 4.94998 22.5994 4.94998 22.4211 5.00796L0.61233 12.1002C0.247255 12.219 0 12.5594 0 12.9433C0 13.3273 0.247255 13.6676 0.61233 13.7864L11.1703 17.2199V23.5818C11.1703 23.8782 11.3185 24.155 11.5651 24.3194C11.7915 24.4703 17.1709 28.0145 22.6704 28.0145C28.2191 28.0145 33.5992 24.4703 33.8255 24.3194C34.0721 24.155 34.2203 23.8781 34.2203 23.5818V17.2199L37.7664 16.0667V24.6208C36.7346 24.9868 35.9933 25.9721 35.9933 27.1279C35.9933 28.2107 36.6442 29.1438 37.5747 29.5583L35.1332 39.3243C34.9934 39.8841 35.4175 40.4259 35.9933 40.4259H41.3126C41.8895 40.4259 42.3122 39.8831 42.1727 39.3243L39.7312 29.5583C40.6618 29.1438 41.3126 28.2107 41.3126 27.1279C41.3126 25.9722 40.5713 24.9868 39.5395 24.6208V15.4901L44.7783 13.7864C45.1435 13.6676 45.3906 13.3273 45.3906 12.9433C45.3906 12.5594 45.1434 12.219 44.7783 12.1002ZM37.1288 38.6529L38.653 32.5563L40.1771 38.6529H37.1288ZM32.4472 23.0907C31.153 23.8724 26.8817 26.2414 22.6704 26.2414C18.5111 26.2414 14.2384 23.8715 12.9434 23.0904V17.7965L22.4211 20.8787C22.599 20.9366 22.7912 20.9367 22.9695 20.8787L32.4472 17.7965V23.0907ZM22.6953 19.1034C20.1195 18.2657 6.80815 13.9369 3.75315 12.9433L22.6953 6.78334L41.6375 12.9433C39.7597 13.554 23.5244 18.8338 22.6953 19.1034Z" fill="black"/>
</g>
<defs>
<clipPath id="clip0_870_2702">
<rect width="45.3906" height="45.3906" fill="white"/>
</clipPath>
</defs>
</svg>
