<svg width="50" height="50" viewBox="0 0 50 50" fill="none" xmlns="http://www.w3.org/2000/svg">
<path fill-rule="evenodd" clip-rule="evenodd" d="M44.2353 31.9957H34.9486C35.7169 30.3939 36.098 28.654 36.0892 26.9085C36.9824 25.9696 38.2175 25.4338 39.5122 25.4338C42.1166 25.4338 44.2353 27.5493 44.2353 30.1564V31.9957ZM35.0945 36.5859L34.1245 37.558L32.2006 35.6357C32.5441 35.3225 32.8622 35.0138 33.1705 34.6637L35.0945 36.5859ZM36.9912 36.6631C36.9476 36.6631 36.8625 36.6742 36.7918 36.7405L34.2809 39.2537C34.1737 39.3642 34.1737 39.5464 34.2809 39.6514L39.2333 44.6061C39.3431 44.7167 39.5218 44.7167 39.6316 44.6061L42.1437 42.0928C42.252 41.9837 42.252 41.8043 42.1437 41.6952L37.1907 36.7405C37.1199 36.6742 37.036 36.6631 36.9912 36.6631ZM19.7825 36.0998V30.1564C19.7825 27.8421 21.4562 25.9088 23.6562 25.5111L22.0776 32.1062C22.0252 32.3272 22.0875 32.5536 22.2428 32.7138L24.0181 34.5587C24.2747 34.8231 24.7072 34.8236 24.9631 34.5587L26.6385 32.8188C26.7031 32.7801 26.7617 32.7248 26.8108 32.6641C26.9351 32.5094 26.9804 32.305 26.9328 32.1062L25.3547 25.5111C27.5542 25.9088 29.2284 27.8421 29.2284 30.1564V36.0998C26.2758 37.6242 22.7359 37.6245 19.7825 36.0998ZM24.5047 24.1192C23.1724 24.1192 22.0875 23.0366 22.0875 21.7053C22.0875 20.3686 23.1724 19.286 24.5047 19.286C25.8386 19.286 26.9234 20.3686 26.9234 21.7053C26.9234 23.0365 25.8386 24.1192 24.5047 24.1192ZM25.5685 32.04L24.5047 27.5935L23.4358 32.0621L24.4909 33.1613L25.5685 32.04ZM17.2367 19.7003C12.7474 24.1865 13.3996 31.6555 18.4718 35.2878V30.1563C18.4718 27.6597 19.9931 25.5165 22.1571 24.5941C21.3159 23.9147 20.7763 22.8707 20.7763 21.7052C20.7763 19.645 22.4493 17.9713 24.5047 17.9713C26.5616 17.9713 28.2342 19.645 28.2342 21.7052C28.2342 22.8707 27.6951 23.9147 26.8533 24.5941C29.0175 25.5165 30.5392 27.6597 30.5392 30.1563V35.2878C30.9711 34.9784 31.3844 34.6249 31.7731 34.2382C35.7816 30.2281 35.7816 23.7048 31.7731 19.7002C27.7588 15.6846 21.2512 15.6813 17.2367 19.7003ZM4.77561 31.9957V30.1564C4.77561 27.5493 6.89449 25.4338 9.49828 25.4338C10.7936 25.4338 12.0275 25.9696 12.9218 26.9085C12.9129 28.654 13.294 30.3939 14.0624 31.9957H4.77561ZM9.49819 19.286C10.8316 19.286 11.9164 20.3686 11.9164 21.7053C11.9164 23.0365 10.8316 24.1192 9.49819 24.1192C8.16477 24.1192 7.08054 23.0366 7.08054 21.7053C7.08054 20.3686 8.16487 19.286 9.49819 19.286ZM11.5657 16.364C11.5657 13.4585 13.9276 11.0946 16.8347 11.0946C19.4594 11.0946 21.6898 13.0886 22.05 15.635C17.3168 16.652 13.7354 20.536 13.0433 25.2791C12.6688 25.0084 12.2661 24.782 11.8419 24.5997C13.806 23.0069 13.6507 19.9934 11.5658 18.6011V16.364H11.5657ZM14.1049 7.05682C14.1049 5.54893 15.3289 4.32814 16.8336 4.32814C18.3387 4.32814 19.5633 5.54883 19.5633 7.05682C19.5633 8.55932 18.3405 9.7855 16.833 9.7855C15.3289 9.7855 14.1049 8.55923 14.1049 7.05682ZM32.1763 11.0946C35.0828 11.0946 37.4447 13.4585 37.4447 16.364V18.6011C35.3605 19.9937 35.2052 23.0065 37.1684 24.5997C36.7448 24.782 36.3416 25.0084 35.9671 25.2791C35.2747 20.5351 31.6929 16.6523 26.9609 15.635C27.3211 13.0886 29.5515 11.0946 32.1763 11.0946ZM29.4477 7.05682C29.4477 5.54893 30.6723 4.32814 32.1775 4.32814C33.6815 4.32814 34.9056 5.54883 34.9056 7.05682C34.9056 8.55932 33.6827 9.7855 32.1764 9.7855C30.6711 9.7855 29.4477 8.55923 29.4477 7.05682ZM41.9304 21.7053C41.9304 20.3686 40.8456 19.286 39.5122 19.286C38.1793 19.286 37.0945 20.3686 37.0945 21.7053C37.0945 23.0365 38.1793 24.1192 39.5122 24.1192C40.8456 24.1192 41.9304 23.0365 41.9304 21.7053ZM41.8602 24.5942C42.7021 23.9148 43.2411 22.8708 43.2411 21.7053C43.2411 19.3451 41.0786 17.5746 38.7559 18.0488V16.364C38.7559 13.6022 37.0464 11.2382 34.6315 10.2605C35.5943 9.52584 36.2167 8.36043 36.2167 7.05682C36.2167 4.83081 34.405 3.01355 32.1774 3.01355C29.9492 3.01355 28.1364 4.83081 28.1364 7.05682C28.1364 8.36034 28.7589 9.52035 29.7222 10.2605C27.5588 11.1338 25.9955 13.1171 25.6646 15.4362C24.8638 15.3553 24.1471 15.3553 23.3453 15.4362C23.0161 13.1164 21.4516 11.1343 19.2888 10.2605C20.252 9.52035 20.874 8.36043 20.874 7.05682C20.874 4.83081 19.0617 3.01355 16.8335 3.01355C14.6058 3.01355 12.7935 4.83081 12.7935 7.05682C12.7935 8.36034 13.4161 9.52584 14.3794 10.2605C11.9645 11.2382 10.2549 13.6023 10.2549 16.364V18.0488C7.92687 17.5757 5.76918 19.3481 5.76918 21.7053C5.76918 22.8708 6.30831 23.9148 7.15013 24.5942C4.98597 25.5166 3.46484 27.6598 3.46484 30.1564V32.6476C3.46484 33.0122 3.75813 33.305 4.11993 33.305H14.8009C18.4012 38.8117 25.8411 40.1925 31.1661 36.4534L33.2093 38.4971C32.7392 39.1213 32.7862 40.0105 33.3535 40.5795L38.307 45.5342C38.927 46.1531 39.9393 46.153 40.559 45.5342L43.07 43.0209C43.692 42.4015 43.6922 41.3921 43.07 40.7673L38.1182 35.8182C37.5516 35.2481 36.6712 35.1947 36.0341 35.669L33.9909 33.6308C34.066 33.5203 34.1395 33.4154 34.2102 33.305H44.8905C45.2528 33.305 45.5462 33.0123 45.5462 32.6476V30.1564C45.5461 27.6598 44.0244 25.5166 41.8602 24.5942Z" fill="black"/>
</svg>
