<svg width="17" height="17" viewBox="0 0 17 17" fill="none" xmlns="http://www.w3.org/2000/svg">
<path d="M8.23128 2.06152L10.2091 6.06893L14.6316 6.71158L11.4314 9.83091L12.1869 14.2355L8.23128 12.1559L4.27572 14.2355L5.03118 9.83091L1.83105 6.71156L6.25352 6.06893L8.23128 2.06152Z" fill="#FFD700"/>
<path d="M7.84736 2.28601C8.15014 2.89948 8.45292 3.51297 8.75568 4.12645C9.10653 4.83736 9.4574 5.54826 9.80826 6.25917C9.93794 6.52195 10.2033 6.51401 10.4494 6.54977C10.873 6.61132 11.2965 6.67285 11.72 6.7344C12.5963 6.86174 13.4726 6.98907 14.3489 7.11641C14.4037 7.12436 14.4585 7.13233 14.5132 7.14028C14.4479 6.89269 14.3825 6.64511 14.3171 6.39752C13.8272 6.87504 13.3373 7.35258 12.8474 7.8301C12.2797 8.38345 11.7121 8.93681 11.1444 9.4902C11.0802 9.55274 11.0275 9.6229 11.0027 9.71295C10.9769 9.80661 10.9935 9.89549 11.0092 9.98687C11.0269 10.0904 11.0447 10.194 11.0624 10.2975C11.1344 10.7173 11.2064 11.137 11.2784 11.5568C11.4286 12.4325 11.5788 13.3081 11.729 14.1837C11.7387 14.2404 11.7484 14.2971 11.7581 14.3538C11.9757 14.1865 12.1934 14.0193 12.411 13.852C11.8054 13.5336 11.1999 13.2153 10.5943 12.8969C9.89261 12.528 9.19089 12.1591 8.48919 11.7902C8.40823 11.7476 8.32677 11.7117 8.23107 11.7117C8.13537 11.7117 8.05391 11.7476 7.97295 11.7902C7.87998 11.8391 7.78699 11.8879 7.69401 11.9368C7.31704 12.135 6.94004 12.3332 6.56307 12.5314C5.77671 12.9448 4.99033 13.3583 4.20396 13.7717C4.15305 13.7984 4.10213 13.8252 4.05122 13.852C4.26883 14.0193 4.48643 14.1866 4.70404 14.3538C4.81969 13.6796 4.93533 13.0053 5.05099 12.331C5.185 11.5496 5.31901 10.7683 5.45302 9.98691C5.46871 9.89552 5.48524 9.80666 5.45948 9.71298C5.43471 9.62293 5.38202 9.55278 5.31785 9.49023C5.24262 9.4169 5.1674 9.34358 5.09217 9.27025C4.78719 8.97296 4.4822 8.67566 4.17722 8.37839C3.54103 7.75827 2.90484 7.13812 2.26866 6.518C2.22747 6.47784 2.18628 6.43769 2.14508 6.39755C2.07972 6.64514 2.01435 6.89272 1.94899 7.14031C2.62602 7.04193 3.30303 6.94356 3.98005 6.84518C4.76457 6.73118 5.54911 6.61719 6.33365 6.50319C6.60473 6.46381 6.69317 6.17975 6.79744 5.96845C6.98685 5.58466 7.17626 5.20086 7.36567 4.81708C7.75756 4.02303 8.14944 3.22897 8.54132 2.43493C8.56581 2.38531 8.5903 2.33568 8.61479 2.28607C8.722 2.06884 8.67514 1.80677 8.45536 1.67804C8.25759 1.56219 7.9545 1.62036 7.84735 1.83747C7.54457 2.45094 7.24181 3.06443 6.93904 3.67791C6.58819 4.38882 6.23736 5.09971 5.8865 5.81063C5.88087 5.82205 5.87524 5.83346 5.8696 5.84488C5.95813 5.7768 6.04666 5.70873 6.13519 5.64064C5.45817 5.73903 4.78116 5.8374 4.10413 5.93577C3.31961 6.04978 2.53507 6.16376 1.75054 6.27777C1.73793 6.27959 1.72533 6.28142 1.71273 6.28326C1.56506 6.30472 1.43947 6.45864 1.40233 6.59366C1.36069 6.74507 1.40354 6.9158 1.51662 7.02602C2.00653 7.50356 2.49641 7.98108 2.98631 8.45862C3.55402 9.01198 4.1217 9.56535 4.68939 10.1187C4.69852 10.1276 4.70763 10.1365 4.71675 10.1454C4.67866 10.0013 4.64055 9.85714 4.60246 9.71301C4.48681 10.3873 4.37117 11.0616 4.25551 11.7359C4.1215 12.5172 3.98748 13.2986 3.85348 14.0799C3.85132 14.0925 3.84918 14.105 3.84702 14.1176C3.81945 14.2783 3.84081 14.4295 3.96131 14.55C4.10724 14.6959 4.3219 14.713 4.49984 14.6194C5.10538 14.3011 5.71092 13.9827 6.31646 13.6644C7.01816 13.2955 7.71987 12.9266 8.42157 12.5577C8.43284 12.5518 8.44411 12.5458 8.45538 12.5399C8.30586 12.5399 8.15632 12.5399 8.00679 12.5399C8.61235 12.8583 9.21789 13.1766 9.82343 13.495C10.5251 13.8639 11.2269 14.2328 11.9286 14.6017C11.9398 14.6076 11.9511 14.6135 11.9624 14.6194C12.1048 14.6943 12.2691 14.7025 12.411 14.6194C12.5955 14.5113 12.6494 14.3169 12.6152 14.1176C12.4995 13.4433 12.3839 12.769 12.2683 12.0947C12.1343 11.3134 12.0002 10.532 11.8662 9.75066C11.8641 9.73811 11.8619 9.72557 11.8598 9.71301C11.8217 9.85714 11.7836 10.0013 11.7455 10.1454C12.2354 9.66786 12.7253 9.19032 13.2152 8.7128C13.7829 8.15945 14.3506 7.60607 14.9183 7.05272C14.9274 7.04383 14.9365 7.03494 14.9456 7.02606C15.0587 6.91584 15.1016 6.7451 15.0599 6.59369C15.0228 6.45869 14.8972 6.30475 14.7495 6.28329C14.0725 6.18492 13.3955 6.08653 12.7185 5.98816C11.9339 5.87416 11.1494 5.76015 10.3648 5.64615C10.3522 5.64432 10.3396 5.6425 10.327 5.64066C10.4156 5.70875 10.5041 5.77682 10.5926 5.84489C10.2899 5.23142 9.98708 4.61792 9.68432 4.00445C9.33346 3.29354 8.98259 2.58264 8.63174 1.87173C8.62612 1.8603 8.62047 1.84889 8.61484 1.83747C8.50769 1.62036 8.2046 1.56219 8.00682 1.67804C7.78704 1.80672 7.74015 2.06878 7.84736 2.28601Z" fill="#FFD700"/>
</svg>
