<svg width="37" height="37" viewBox="0 0 37 37" fill="none" xmlns="http://www.w3.org/2000/svg">
<g clip-path="url(#clip0_984_743)">
<path d="M36.9111 18.4556C36.9111 13.5259 34.9914 8.89133 31.5057 5.40546C28.0198 1.91974 23.3852 0 18.4556 0C14.8397 0 11.3832 1.03409 8.42172 2.96017C7.82444 2.41018 7.02782 2.07358 6.15385 2.07358C4.30591 2.07358 2.80251 3.57699 2.80251 5.42493C2.80251 6.23041 3.08828 6.97036 3.56365 7.54898C1.25029 10.6937 0 14.4784 0 18.4556C0 23.3852 1.91974 28.0198 5.40546 31.5057C8.89133 34.9914 13.5259 36.9111 18.4556 36.9111C22.0714 36.9111 25.5279 35.877 28.4894 33.951C29.0867 34.5009 29.8833 34.8375 30.7573 34.8375C32.6052 34.8375 34.1086 33.3341 34.1086 31.4862C34.1086 30.6807 33.8229 29.9408 33.3475 29.3622C35.6608 26.2174 36.9111 22.4327 36.9111 18.4556ZM31.9459 31.4862C31.9459 32.1416 31.4127 32.6748 30.7573 32.6748C30.1019 32.6748 29.5687 32.1416 29.5687 31.4862C29.5687 30.8308 30.1019 30.2976 30.7573 30.2976C31.4127 30.2976 31.9459 30.8308 31.9459 31.4862ZM30.7573 28.1349C28.9093 28.1349 27.4059 29.6383 27.4059 31.4862C27.4059 31.6724 27.4219 31.8549 27.4512 32.0329C26.0231 32.9823 24.4374 33.7122 22.7424 34.1749C23.3237 33.3406 23.8555 32.3252 24.3251 31.1391C24.9209 29.6344 25.3981 27.9147 25.7455 26.0523H32.8652C32.4636 26.811 32.0045 27.5349 31.4925 28.217C31.2557 28.1638 31.0098 28.1349 30.7573 28.1349ZM14.597 30.3429C14.2898 29.567 14.0167 28.7265 13.7792 27.8337C14.4427 27.4287 14.9543 26.7994 15.2098 26.0523H23.5446C23.2314 27.6215 22.8186 29.0689 22.3141 30.3429C21.222 33.1014 19.7795 34.7484 18.4556 34.7484C17.1316 34.7484 15.6891 33.1014 14.597 30.3429ZM3.09571 23.8895C2.49237 22.1891 2.16276 20.3602 2.16276 18.4556C2.16276 16.643 2.46065 14.8988 3.00934 13.269H10.7983C10.5988 14.9317 10.4954 16.6748 10.4954 18.4556C10.4954 19.6348 10.5409 20.7974 10.6294 21.9312C9.80603 22.3144 9.16369 23.0222 8.86711 23.8895H3.09571ZM4.96527 5.42493C4.96527 4.76954 5.49846 4.23635 6.15385 4.23635C6.80924 4.23635 7.34243 4.76954 7.34243 5.42493C7.34243 6.08032 6.80924 6.61351 6.15385 6.61351C5.49846 6.61351 4.96527 6.08032 4.96527 5.42493ZM6.15385 8.77627C8.00179 8.77627 9.50519 7.27286 9.50519 5.42493C9.50519 5.23871 9.48926 5.05632 9.45992 4.87832C10.8881 3.92895 12.4737 3.19901 14.1688 2.73618C13.5876 3.5705 13.0557 4.58592 12.5861 5.77205C11.9641 7.34315 11.4714 9.14863 11.1206 11.1061H3.91719C4.3483 10.2568 4.85122 9.44997 5.41873 8.69401C5.65548 8.74729 5.90124 8.77627 6.15385 8.77627ZM22.3141 6.56824C22.6458 7.40602 22.9376 8.31935 23.1878 9.29238C22.4974 9.69566 21.9639 10.3384 21.7013 11.1062H13.3184C13.637 9.44168 14.0661 7.90886 14.5969 6.56824C15.6891 3.8097 17.1316 2.16276 18.4556 2.16276C19.7795 2.16276 21.222 3.8097 22.3141 6.56824ZM33.9018 13.269C34.4505 14.8988 34.7484 16.643 34.7484 18.4556C34.7484 20.3602 34.4188 22.1891 33.8154 23.8895H26.0819C26.3014 22.1526 26.4158 20.3249 26.4158 18.4556C26.4158 17.3591 26.3761 16.2772 26.2994 15.2192C27.1143 14.8342 27.7495 14.13 28.044 13.269H33.9018ZM15.2098 23.8895C14.8371 22.7995 13.9179 21.9615 12.7803 21.7033C12.6997 20.6454 12.6581 19.5592 12.6581 18.4556C12.6581 16.6652 12.7671 14.9203 12.9764 13.269H21.7014C22.0761 14.3648 23.0031 15.2061 24.1491 15.4594C24.2177 16.4377 24.253 17.4393 24.253 18.4556C24.253 20.3357 24.1328 22.1655 23.9025 23.8896H15.2098V23.8895ZM10.8499 24.9709C10.8499 24.3155 11.383 23.7823 12.0384 23.7823C12.6938 23.7823 13.227 24.3155 13.227 24.9709C13.227 25.6263 12.6938 26.1595 12.0384 26.1595C11.383 26.1595 10.8499 25.6263 10.8499 24.9709ZM26.0613 12.1876C26.0613 12.843 25.5281 13.3762 24.8727 13.3762C24.2173 13.3762 23.6841 12.843 23.6841 12.1876C23.6841 11.5322 24.2173 10.999 24.8727 10.999C25.5281 10.999 26.0613 11.5321 26.0613 12.1876ZM32.9939 11.1062H28.044C27.6386 9.92059 26.5865 9.03299 25.3102 8.86574C25.0311 7.76085 24.7018 6.72352 24.3252 5.77212C23.8555 4.58599 23.3237 3.5705 22.7424 2.73625C27.2183 3.95814 30.9324 7.04462 32.9939 11.1062ZM4.04595 26.0523H8.86711C9.27955 27.2584 10.361 28.1565 11.6671 28.3012C11.9317 29.3105 12.2386 30.2615 12.586 31.139C13.0557 32.3251 13.5876 33.3406 14.1688 34.1749C9.78426 32.9779 6.13121 29.9916 4.04595 26.0523Z" fill="black"/>
</g>
<defs>
<clipPath id="clip0_984_743">
<rect width="36.9111" height="36.9111" fill="white"/>
</clipPath>
</defs>
</svg>
