<svg width="41" height="41" viewBox="0 0 41 41" fill="none" xmlns="http://www.w3.org/2000/svg">
<path d="M13.4191 27.6747H12.1611C12.1611 28.115 12.3913 28.5232 12.768 28.751C13.1448 28.9789 13.6132 28.9932 14.0031 28.7889L13.4191 27.6747ZM2.09766 36.8995C2.09766 37.5942 2.66086 38.1575 3.35559 38.1575C4.05032 38.1575 4.61353 37.5942 4.61353 36.8995H2.09766ZM18.858 24.8234L19.4421 25.9376L19.4889 25.9131L19.5335 25.8847L18.858 24.8234ZM21.4553 28.9417L22.046 30.0523L22.0847 30.0317L22.122 30.0084L21.4553 28.9417ZM14.7009 32.5342L14.1102 31.4237L14.0714 31.4443L14.0342 31.4674L14.7009 32.5342ZM9.47952 27.8892C9.13483 27.2861 8.36641 27.0764 7.76323 27.4211C7.16002 27.7658 6.95045 28.5343 7.29514 29.1374L9.47952 27.8892ZM14.677 33.545C14.677 32.8503 14.1138 32.2871 13.4191 32.2871C12.7243 32.2871 12.1611 32.8503 12.1611 33.545H14.677ZM12.1611 36.8995C12.1611 37.5942 12.7243 38.1575 13.4191 38.1575C14.1138 38.1575 14.677 37.5942 14.677 36.8995H12.1611ZM21.5827 23.6448L20.9073 24.7061L23.0299 26.0568L23.7051 24.9956L21.5827 23.6448ZM29.5755 15.7707C29.9485 15.1846 29.7757 14.407 29.1897 14.0341C28.6035 13.6611 27.8259 13.8339 27.4531 14.42L29.5755 15.7707ZM8.80664 7.54773C8.80664 8.24246 9.36984 8.80566 10.0646 8.80566C10.7593 8.80566 11.3225 8.24246 11.3225 7.54773H8.80664ZM31.8688 18.8691C31.1741 18.8691 30.6108 19.4324 30.6108 20.1271C30.6108 20.8218 31.1741 21.385 31.8688 21.385V18.8691ZM16.7736 8.80566C16.0788 8.80566 15.5156 9.36887 15.5156 10.0636C15.5156 10.7583 16.0788 11.3215 16.7736 11.3215V8.80566ZM30.1915 11.3215C30.8862 11.3215 31.4495 10.7583 31.4495 10.0636C31.4495 9.36887 30.8862 8.80566 30.1915 8.80566V11.3215ZM16.7736 13.8374C16.0788 13.8374 15.5156 14.4006 15.5156 15.0953C15.5156 15.7901 16.0788 16.3533 16.7736 16.3533V13.8374ZM23.4825 16.3533C24.1773 16.3533 24.7405 15.7901 24.7405 15.0953C24.7405 14.4006 24.1773 13.8374 23.4825 13.8374V16.3533ZM10.4839 15.0953C10.4839 16.2532 9.54523 17.1919 8.38733 17.1919V19.7078C10.9347 19.7078 12.9998 17.6427 12.9998 15.0953H10.4839ZM8.38733 17.1919C7.22943 17.1919 6.29077 16.2532 6.29077 15.0953H3.7749C3.7749 17.6427 5.83996 19.7078 8.38733 19.7078V17.1919ZM6.29077 15.0953C6.29077 13.9374 7.22943 12.9988 8.38733 12.9988V10.4829C5.83996 10.4829 3.7749 12.548 3.7749 15.0953H6.29077ZM8.38733 12.9988C9.54523 12.9988 10.4839 13.9374 10.4839 15.0953H12.9998C12.9998 12.548 10.9347 10.4829 8.38733 10.4829V12.9988ZM14.677 27.6747V26.8361H12.1611V27.6747H14.677ZM2.09766 26.8361V36.8995H4.61353V26.8361H2.09766ZM14.0031 28.7889L19.4421 25.9376L18.274 23.7093L12.835 26.5605L14.0031 28.7889ZM20.8645 27.8312L14.1102 31.4237L15.2916 33.6448L22.046 30.0523L20.8645 27.8312ZM11.1027 30.7298L9.47952 27.8892L7.29514 29.1374L8.91834 31.978L11.1027 30.7298ZM19.5335 25.8847C20.0918 25.5293 20.8333 25.7044 21.174 26.272L23.3313 24.9775C22.2625 23.1963 19.9352 22.647 18.1826 23.7622L19.5335 25.8847ZM14.0342 31.4674C13.0248 32.0984 11.6933 31.7633 11.1027 30.7298L8.91834 31.978C10.2176 34.2517 13.147 34.9888 15.3676 33.6009L14.0342 31.4674ZM4.61353 26.8361C4.61353 24.7519 6.30312 23.0623 8.38733 23.0623V20.5464C4.91364 20.5464 2.09766 23.3623 2.09766 26.8361H4.61353ZM21.174 26.272C21.5039 26.822 21.3325 27.535 20.7886 27.8749L22.122 30.0084C23.8291 28.9415 24.367 26.7037 23.3313 24.9775L21.174 26.272ZM14.677 26.8361C14.677 23.3623 11.861 20.5464 8.38733 20.5464V23.0623C10.4715 23.0623 12.1611 24.7519 12.1611 26.8361H14.677ZM12.1611 33.545V36.8995H14.677V33.545H12.1611ZM23.7051 24.9956L29.5755 15.7707L27.4531 14.42L21.5827 23.6448L23.7051 24.9956ZM11.3225 7.54773V6.70911H8.80664V7.54773H11.3225ZM13.4191 4.61255H33.546V2.09668H13.4191V4.61255ZM35.6426 6.70911V16.7726H38.1584V6.70911H35.6426ZM33.546 18.8691H31.8688V21.385H33.546V18.8691ZM35.6426 16.7726C35.6426 17.9306 34.704 18.8691 33.546 18.8691V21.385C36.0934 21.385 38.1584 19.32 38.1584 16.7726H35.6426ZM33.546 4.61255C34.704 4.61255 35.6426 5.5512 35.6426 6.70911H38.1584C38.1584 4.16174 36.0934 2.09668 33.546 2.09668V4.61255ZM11.3225 6.70911C11.3225 5.5512 12.2612 4.61255 13.4191 4.61255V2.09668C10.8717 2.09668 8.80664 4.16174 8.80664 6.70911H11.3225ZM16.7736 11.3215H30.1915V8.80566H16.7736V11.3215ZM16.7736 16.3533H23.4825V13.8374H16.7736V16.3533Z" fill="black"/>
</svg>
