<svg width="41" height="41" viewBox="0 0 41 41" fill="none" xmlns="http://www.w3.org/2000/svg">
<g clip-path="url(#clip0_984_751)">
<path d="M22.0872 8.91804L4.57587 3.13965L2.66911 8.91804H0V31.6092H18.4402L35.9515 37.3876L37.8582 31.6092H40.5273V8.91804H22.0872ZM38.1527 13.6302C37.0551 13.2595 36.1859 12.3903 35.8152 11.2927H38.1527V13.6302ZM33.3621 29.2344H7.16527C6.68741 26.8245 4.78468 24.9218 2.37465 24.4438V16.0833C4.78468 15.6054 6.68741 13.7027 7.16527 11.2927H33.3621C33.8399 13.7027 35.7427 15.6054 38.1527 16.0833V24.4439C35.7427 24.9217 33.8399 26.8245 33.3621 29.2344ZM14.5092 8.91804H5.16969L6.08678 6.13883L14.5092 8.91804ZM4.71217 11.2927C4.34149 12.3903 3.47221 13.2595 2.37465 13.6302V11.2927H4.71217ZM2.37465 26.8969C3.47221 27.2676 4.34149 28.1369 4.71217 29.2344H2.37465V26.8969ZM26.0182 31.6091H35.3577L34.4406 34.3883L26.0182 31.6091ZM35.8152 29.2344C36.1859 28.1369 37.0551 27.2676 38.1527 26.8969V29.2344H35.8152Z" fill="black"/>
<path d="M20.2619 14.1426C16.8866 14.1426 14.1406 16.8886 14.1406 20.2639C14.1406 23.6391 16.8867 26.3852 20.2619 26.3852C23.6372 26.3852 26.3832 23.6391 26.3832 20.2639C26.3832 16.8886 23.6372 14.1426 20.2619 14.1426ZM20.2619 24.0105C18.196 24.0105 16.5153 22.3297 16.5153 20.2639C16.5153 18.198 18.196 16.5172 20.2619 16.5172C22.3279 16.5172 24.0086 18.1979 24.0086 20.2639C24.0086 22.3298 22.3279 24.0105 20.2619 24.0105Z" fill="black"/>
<path d="M6.30859 19.0762H10.5302V21.4508H6.30859V19.0762Z" fill="black"/>
<path d="M30.1055 19.0762H34.327V21.4508H30.1055V19.0762Z" fill="black"/>
</g>
<defs>
<clipPath id="clip0_984_751">
<rect width="40.5273" height="40.5273" fill="white"/>
</clipPath>
</defs>
</svg>
