<svg width="39" height="39" viewBox="0 0 39 39" fill="none" xmlns="http://www.w3.org/2000/svg">
<g clip-path="url(#clip0_984_731)">
<path d="M7.89456 15.641H33.2181C33.8351 15.641 34.3353 15.1408 34.3353 14.5238V1.11722C34.3353 0.500214 33.8351 0 33.2181 0H7.89456C7.27756 0 6.77734 0.500214 6.77734 1.11722V14.5238C6.77734 15.1408 7.27756 15.641 7.89456 15.641ZM32.1009 13.4066H30.0586C30.3958 12.4559 31.1502 11.7015 32.1009 11.3643V13.4066ZM32.1009 2.23443V4.2767C31.1502 3.93952 30.3958 3.18511 30.0586 2.23443H32.1009ZM9.01177 2.23443H11.054C10.7169 3.18511 9.96245 3.93952 9.01177 4.2767V2.23443ZM9.01177 6.5909C11.1973 6.14543 12.9228 4.42 13.3682 2.23443H27.7445C28.1899 4.42 29.9154 6.14543 32.101 6.5909V9.05011C29.9154 9.49551 28.19 11.221 27.7445 13.4066H13.3682C12.9228 11.221 11.1973 9.49558 9.01177 9.05011V6.5909ZM9.01177 11.3643C9.96245 11.7015 10.7169 12.4559 11.054 13.4066H9.01177V11.3643Z" fill="black"/>
<path d="M20.5587 11.172C22.4068 11.172 23.9103 9.66849 23.9103 7.8204C23.9103 5.9723 22.4068 4.46875 20.5587 4.46875C18.7106 4.46875 17.207 5.9723 17.207 7.8204C17.207 9.66849 18.7106 11.172 20.5587 11.172ZM20.5587 6.70318C21.1747 6.70318 21.6759 7.20436 21.6759 7.8204C21.6759 8.43643 21.1747 8.93761 20.5587 8.93761C19.9426 8.93761 19.4415 8.43643 19.4415 7.8204C19.4415 7.20436 19.9426 6.70318 20.5587 6.70318Z" fill="black"/>
<path d="M13.8555 8.93756C14.4725 8.93756 14.9727 8.43736 14.9727 7.82034C14.9727 7.20332 14.4725 6.70312 13.8555 6.70312C13.2385 6.70312 12.7383 7.20332 12.7383 7.82034C12.7383 8.43736 13.2385 8.93756 13.8555 8.93756Z" fill="black"/>
<path d="M27.2617 8.93756C27.8788 8.93756 28.379 8.43736 28.379 7.82034C28.379 7.20332 27.8788 6.70312 27.2617 6.70312C26.6447 6.70312 26.1445 7.20332 26.1445 7.82034C26.1445 8.43736 26.6447 8.93756 27.2617 8.93756Z" fill="black"/>
<path d="M37.8539 25.7657C37.1716 23.8909 35.0294 23.0035 33.2212 23.8465L26.5442 26.9594C26.3481 25.5597 25.274 24.3831 23.807 24.1245L20.7663 23.5884C19.6918 23.3989 18.6898 22.9913 17.7881 22.377C15.1673 20.5915 11.8236 20.173 8.84339 21.2576L6.54468 22.0943L6.44071 21.8086C6.2297 21.2288 5.58857 20.9298 5.00873 21.1409L0.809346 22.6693C0.367972 22.83 0.0742188 23.2495 0.0742188 23.7192V37.0171C0.0742188 37.6341 0.574433 38.1344 1.19143 38.1344H6.03151C6.16185 38.1344 6.29115 38.1116 6.4136 38.0669L10.6129 36.5385C11.0628 36.3747 11.3423 35.9519 11.3469 35.4999L20.8923 36.8117C21.1488 36.847 21.4051 36.8645 21.6604 36.8645C22.558 36.8645 23.4396 36.6479 24.2458 36.2254L36.2368 29.9411C37.7453 29.1505 38.4364 27.366 37.8539 25.7657ZM5.83458 35.8999H2.30865V24.5014L4.7231 23.6226L8.79892 34.8209L5.83458 35.8999ZM35.1996 27.9619L23.2087 34.2463C22.5872 34.5719 21.8916 34.6935 21.1964 34.5981L10.5637 33.1368L7.30886 24.194L9.60756 23.3572C11.9106 22.519 14.4946 22.8408 16.5217 24.2179C17.657 24.9892 18.9306 25.5335 20.2821 25.7718L23.419 26.3249C24.0266 26.4321 24.4324 27.0115 24.3252 27.6191C24.2181 28.2267 23.6387 28.6325 23.0311 28.5253L15.9262 27.2726C15.3014 27.162 14.7053 27.5951 14.6238 28.2323C14.5474 28.829 14.977 29.374 15.5694 29.4785L22.643 30.7258C23.6867 30.9098 24.7021 30.5889 25.4403 29.9393L34.1654 25.8716C34.7856 25.5824 35.5203 25.8868 35.7543 26.5298C35.954 27.0788 35.717 27.6908 35.1996 27.9619Z" fill="black"/>
</g>
<defs>
<clipPath id="clip0_984_731">
<rect width="38.1343" height="38.1343" fill="white"/>
</clipPath>
</defs>
</svg>
